<svg width="248" height="88" viewBox="0 0 248 88" fill="none" xmlns="http://www.w3.org/2000/svg">
<g clip-path="url(#clip0_449385_1042)">
<g filter="url(#filter0_i_449385_1042)">
<path d="M103.443 63.53C103.513 63.0867 103.898 62.865 104.598 62.865C105.064 62.865 105.566 62.97 106.103 63.18C106.639 63.39 107.083 63.6817 107.433 64.055C107.783 64.405 107.923 64.7667 107.853 65.14C106.779 72.4433 104.854 79.21 102.078 85.44C101.891 85.86 101.483 86.07 100.853 86.07C100.456 86.07 99.9892 85.9883 99.4526 85.825C98.0292 85.3817 97.0492 84.5417 96.5126 83.305C95.9992 82.045 95.6842 80.505 95.5676 78.685L95.4976 77.81C94.6576 79.5833 93.4676 82.29 91.9276 85.93C91.7176 86.3967 91.2859 86.63 90.6326 86.63C90.1659 86.63 89.6759 86.5133 89.1626 86.28C88.6492 86.0467 88.2292 85.755 87.9026 85.405C87.5992 85.055 87.4709 84.6933 87.5176 84.32C87.8209 82.3133 87.9726 79.9683 87.9726 77.285C87.9726 76.0483 87.9259 74.2167 87.8326 71.79C87.7392 69.3633 87.6926 67.555 87.6926 66.365L87.7276 64.755C87.7509 64.4283 87.8792 64.1833 88.1126 64.02C88.3692 63.8567 88.6959 63.775 89.0926 63.775C89.7926 63.775 90.4926 63.9733 91.1926 64.37C91.8926 64.7433 92.2309 65.175 92.2076 65.665L92.1726 67.52C92.1726 68.8967 92.2192 70.9617 92.3126 73.715C93.3159 71.6617 94.4126 69.6433 95.6026 67.66C95.8592 67.24 96.3376 67.03 97.0376 67.03C97.7142 67.03 98.3676 67.2167 98.9976 67.59C99.6509 67.9633 99.9892 68.4067 100.013 68.92C100.036 69.27 100.048 69.8067 100.048 70.53C100.048 71.16 100.024 72.105 99.9776 73.365C99.9309 74.9283 99.9192 76.095 99.9426 76.865V78.02C101.576 73.26 102.743 68.43 103.443 63.53ZM124.148 81.065C124.498 81.1817 124.673 81.3917 124.673 81.695C124.673 82.0683 124.451 82.4767 124.008 82.92C123.518 83.41 122.888 83.655 122.118 83.655C121.745 83.655 121.43 83.6083 121.173 83.515C119.936 83.1183 118.816 82.92 117.813 82.92C116.063 82.92 114.278 83.48 112.458 84.6C112.155 84.81 111.781 84.985 111.338 85.125C110.918 85.2417 110.521 85.3 110.148 85.3C109.798 85.3 109.518 85.2417 109.308 85.125C109.098 84.985 108.993 84.775 108.993 84.495C108.993 84.3317 109.016 84.1917 109.063 84.075C109.74 82.185 110.276 80.4817 110.673 78.965C111.093 77.4483 111.373 75.9083 111.513 74.345C111.723 72.245 111.828 70.705 111.828 69.725C111.828 67.135 111.326 65.1517 110.323 63.775C110.206 63.635 110.148 63.4483 110.148 63.215C110.148 62.7483 110.475 62.3167 111.128 61.92C111.781 61.5 112.423 61.29 113.053 61.29C113.473 61.29 113.776 61.3833 113.963 61.57C114.266 61.6867 114.465 61.8733 114.558 62.13C115.141 63.67 115.946 64.9767 116.973 66.05C118 67.1 119.213 67.625 120.613 67.625C120.87 67.625 121.255 67.5783 121.768 67.485C122.095 67.4383 122.305 67.415 122.398 67.415C122.795 67.415 123.086 67.5083 123.273 67.695C123.483 67.8583 123.588 68.0917 123.588 68.395C123.588 68.7217 123.448 69.0483 123.168 69.375C122.911 69.7017 122.561 69.935 122.118 70.075C121.161 70.4017 120.205 70.565 119.248 70.565C118.105 70.565 117.008 70.3317 115.958 69.865C115.911 71.1717 115.853 72.1517 115.783 72.805L115.538 75.01C116.448 74.8467 117.358 74.7067 118.268 74.59L118.758 74.555C119.691 74.555 120.158 74.87 120.158 75.5C120.158 75.92 119.925 76.2933 119.458 76.62C118.991 76.9467 118.513 77.1567 118.023 77.25C117.3 77.39 116.308 77.5417 115.048 77.705C114.791 78.8483 114.511 79.9217 114.208 80.925C115.748 80.365 117.311 80.085 118.898 80.085C120.648 80.085 122.398 80.4117 124.148 81.065ZM134.454 74.135L134.174 74.835L136.624 76.9L136.379 75.885C136.216 75.2317 135.889 73.8433 135.399 71.72L134.454 74.135ZM138.444 63.915C138.771 65.945 139.179 68.01 139.669 70.11C140.183 72.1867 140.801 74.5783 141.524 77.285C142.201 79.8517 142.644 81.555 142.854 82.395C142.878 82.465 142.889 82.57 142.889 82.71C142.889 83.27 142.574 83.76 141.944 84.18C141.314 84.5767 140.661 84.775 139.984 84.775C139.424 84.775 138.993 84.6233 138.689 84.32C138.013 83.5967 137.301 82.9083 136.554 82.255C135.808 81.6017 134.828 80.7967 133.614 79.84L132.459 78.895C131.479 80.995 130.721 82.5467 130.184 83.55C130.021 83.9 129.589 84.2267 128.889 84.53C128.213 84.81 127.583 84.95 126.999 84.95C126.346 84.95 126.019 84.74 126.019 84.32C126.019 84.2033 126.054 84.0633 126.124 83.9C126.824 82.1733 127.653 80.19 128.609 77.95L129.344 76.165C128.761 75.5817 128.469 75.29 128.469 75.29C128.306 75.1267 128.224 74.94 128.224 74.73C128.224 74.3333 128.481 73.96 128.994 73.61C129.508 73.2367 130.079 72.9917 130.709 72.875C131.829 70.1917 132.879 67.4617 133.859 64.685C133.953 64.3583 134.244 64.0783 134.734 63.845C135.248 63.5883 135.784 63.425 136.344 63.355C136.741 63.2383 137.079 63.18 137.359 63.18C138.013 63.18 138.374 63.425 138.444 63.915ZM152.142 72.315C153.052 71.5917 153.787 70.95 154.347 70.39C154.93 69.83 155.373 69.27 155.677 68.71C154.417 68.3833 152.55 67.8467 150.077 67.1L149.902 74.205C150.602 73.6217 151.01 73.2717 151.127 73.155L152.142 72.315ZM157.777 77.215C157.963 76.8417 158.36 76.5267 158.967 76.27C159.573 75.99 160.157 75.85 160.717 75.85C161.487 75.85 161.872 76.095 161.872 76.585C161.872 76.725 161.837 76.8883 161.767 77.075C160.81 79.315 160.087 81.485 159.597 83.585C159.48 84.0517 159.142 84.4833 158.582 84.88C158.348 85.1833 157.987 85.44 157.497 85.65C157.03 85.86 156.563 85.965 156.097 85.965C155.7 85.965 155.373 85.8833 155.117 85.72C154.883 85.5567 154.755 85.3 154.732 84.95C154.638 83.4333 154.137 82.045 153.227 80.785C152.34 79.525 151.197 78.7083 149.797 78.335L149.622 83.41C149.598 83.8533 149.225 84.2617 148.502 84.635C147.802 85.0083 147.125 85.195 146.472 85.195C146.122 85.195 145.842 85.1367 145.632 85.02C145.422 84.88 145.317 84.67 145.317 84.39L145.422 79.56C145.118 79.35 144.967 79.105 144.967 78.825C144.967 78.4983 145.142 78.1833 145.492 77.88C145.608 73.6333 145.748 69.3983 145.912 65.175C145.935 64.685 146.262 64.265 146.892 63.915C147.545 63.5417 148.198 63.355 148.852 63.355C149.342 63.355 149.692 63.4717 149.902 63.705C152.445 64.405 155.082 65.175 157.812 66.015C158.232 65.9217 158.523 65.875 158.687 65.875C159.083 65.875 159.387 65.9683 159.597 66.155C159.83 66.3183 159.947 66.575 159.947 66.925C159.947 67.8817 159.632 68.7683 159.002 69.585C158.372 70.3783 157.497 71.265 156.377 72.245L155.677 72.875C154.557 73.9717 153.472 74.94 152.422 75.78C154.335 76.3167 155.875 77.3783 157.042 78.965C157.135 78.7317 157.38 78.1483 157.777 77.215Z" fill="#FFDF27"/>
</g>
<g filter="url(#filter1_i_449385_1042)">
<path d="M36.2311 58.6C33.6311 58.6 31.1711 58.4 28.8511 58C26.5311 57.56 24.5511 56.96 22.9111 56.2V46.9C24.7111 47.74 26.7111 48.42 28.9111 48.94C31.1111 49.46 33.1711 49.72 35.0911 49.72C37.0911 49.72 38.5911 49.56 39.5911 49.24C40.6311 48.88 41.1511 48.1 41.1511 46.9C41.1511 46.06 40.8511 45.4 40.2511 44.92C39.6911 44.44 38.7911 44 37.5511 43.6C36.3511 43.2 34.7711 42.7 32.8111 42.1C30.2111 41.26 28.1511 40.34 26.6311 39.34C25.1111 38.34 24.0111 37.12 23.3311 35.68C22.6911 34.24 22.3711 32.48 22.3711 30.4C22.3711 26.6 23.7111 23.72 26.3911 21.76C29.1111 19.76 33.1311 18.76 38.4511 18.76C40.5711 18.76 42.7511 18.94 44.9911 19.3C47.2711 19.66 49.1111 20.06 50.5111 20.5V29.86C48.6311 29.1 46.8311 28.56 45.1111 28.24C43.3911 27.92 41.7711 27.76 40.2511 27.76C38.4911 27.76 36.9911 27.9 35.7511 28.18C34.5111 28.46 33.8911 29.18 33.8911 30.34C33.8911 31.34 34.4111 32.08 35.4511 32.56C36.5311 33 38.4311 33.58 41.1511 34.3C44.3111 35.14 46.7111 36.16 48.3511 37.36C50.0311 38.56 51.1711 39.96 51.7711 41.56C52.3711 43.12 52.6711 44.9 52.6711 46.9C52.6711 50.42 51.3111 53.26 48.5911 55.42C45.8711 57.54 41.7511 58.6 36.2311 58.6ZM65.9123 58V27.76H55.0523V19.36H88.0523V27.76H77.1923V58H65.9123ZM91.6266 58V19.36H111.727C114.887 19.36 117.467 19.94 119.467 21.1C121.507 22.26 123.027 23.88 124.027 25.96C125.027 28 125.527 30.38 125.527 33.1C125.527 35.7 124.867 38 123.547 40C122.267 41.96 120.547 43.46 118.387 44.5C118.827 44.86 119.207 45.3 119.527 45.82C119.847 46.3 120.207 46.98 120.607 47.86L125.047 58H113.287L109.207 48.7C108.887 47.98 108.487 47.48 108.007 47.2C107.567 46.88 106.927 46.72 106.087 46.72H102.907V58H91.6266ZM102.907 38.08H108.847C110.487 38.08 111.747 37.66 112.627 36.82C113.547 35.94 114.007 34.7 114.007 33.1C114.007 29.7 112.407 28 109.207 28H102.907V38.08ZM130.313 58V19.36H159.593V28H141.593V34.3H157.373V43.06H141.593V49.36H159.593V58H130.313ZM163.784 58V19.36H193.064V28H175.064V34.3H190.844V43.06H175.064V49.36H193.064V58H163.784ZM205.715 58V27.76H194.855V19.36H227.855V27.76H216.995V58H205.715Z" fill="white"/>
</g>
<path d="M0 0H248V8H0V0Z" fill="white"/>
<path d="M0 0H248V8H0V0Z" fill="white"/>
<path d="M0 71H77V79H0V71Z" fill="white"/>
<path d="M0 71H77V79H0V71Z" fill="white"/>
<path d="M0 78L0 -3.48687e-06H8L8 78H0Z" fill="white"/>
<path d="M0 78L0 -3.48687e-06H8L8 78H0Z" fill="white"/>
<path d="M240 78V-2.04919e-06H248V78H240Z" fill="white"/>
<path d="M240 78V-2.04919e-06H248V78H240Z" fill="white"/>
<path d="M171 71H248V79H171V71Z" fill="white"/>
<path d="M171 71H248V79H171V71Z" fill="white"/>
</g>
<defs>
<filter id="filter0_i_449385_1042" x="87.4475" y="61.29" width="74.4243" height="29.34" filterUnits="userSpaceOnUse" color-interpolation-filters="sRGB">
<feFlood flood-opacity="0" result="BackgroundImageFix"/>
<feBlend mode="normal" in="SourceGraphic" in2="BackgroundImageFix" result="shape"/>
<feColorMatrix in="SourceAlpha" type="matrix" values="0 0 0 0 0 0 0 0 0 0 0 0 0 0 0 0 0 0 127 0" result="hardAlpha"/>
<feOffset dy="4"/>
<feGaussianBlur stdDeviation="2"/>
<feComposite in2="hardAlpha" operator="arithmetic" k2="-1" k3="1"/>
<feColorMatrix type="matrix" values="0 0 0 0 1 0 0 0 0 1 0 0 0 0 1 0 0 0 0.2 0"/>
<feBlend mode="normal" in2="shape" result="effect1_innerShadow_449385_1042"/>
</filter>
<filter id="filter1_i_449385_1042" x="22.3711" y="18.76" width="206.484" height="43.84" filterUnits="userSpaceOnUse" color-interpolation-filters="sRGB">
<feFlood flood-opacity="0" result="BackgroundImageFix"/>
<feBlend mode="normal" in="SourceGraphic" in2="BackgroundImageFix" result="shape"/>
<feColorMatrix in="SourceAlpha" type="matrix" values="0 0 0 0 0 0 0 0 0 0 0 0 0 0 0 0 0 0 127 0" result="hardAlpha"/>
<feOffset dx="1" dy="4"/>
<feGaussianBlur stdDeviation="2.5"/>
<feComposite in2="hardAlpha" operator="arithmetic" k2="-1" k3="1"/>
<feColorMatrix type="matrix" values="0 0 0 0 0 0 0 0 0 0 0 0 0 0 0 0 0 0 0.15 0"/>
<feBlend mode="normal" in2="shape" result="effect1_innerShadow_449385_1042"/>
</filter>
<clipPath id="clip0_449385_1042">
<rect width="248" height="88" fill="white"/>
</clipPath>
</defs>
</svg>
