<svg width="498" height="178" viewBox="0 0 498 178" fill="none" xmlns="http://www.w3.org/2000/svg">
<rect y="41.5978" width="497.996" height="136.402" rx="2" fill="white"/>
<rect x="0.5" y="42.0978" width="496.996" height="135.402" rx="1.5" stroke="black" stroke-opacity="0.8"/>
<line x1="64.5032" y1="41.5978" x2="64.5032" y2="178" stroke="black" stroke-opacity="0.8"/>
<line x1="136.502" y1="41.5978" x2="136.502" y2="178" stroke="black" stroke-opacity="0.8"/>
<line x1="210.5" y1="41.5978" x2="210.5" y2="178" stroke="black" stroke-opacity="0.8"/>
<line x1="284.499" y1="41.5978" x2="284.499" y2="178" stroke="black" stroke-opacity="0.8"/>
<line x1="361.498" y1="41.5978" x2="361.498" y2="178" stroke="black" stroke-opacity="0.8"/>
<line x1="431.497" y1="41.5978" x2="431.497" y2="178" stroke="black" stroke-opacity="0.8"/>
<line x1="1.00391" y1="109.299" x2="496.992" y2="109.299" stroke="black" stroke-opacity="0.8"/>
<path d="M0.501953 143.349H498" stroke="black" stroke-opacity="0.8"/>
<line x1="1.00391" y1="75.1984" x2="497.996" y2="75.1984" stroke="black" stroke-opacity="0.8"/>
<path d="M85.2289 98.3536V95.4896H80.4369V93.8176L84.8289 87.1536H86.8929V93.8256H87.9169V95.4896H86.8929V98.3536H85.2289ZM82.3729 93.8176L85.2289 93.8256L85.2129 89.4496L82.3729 93.8176ZM90.851 98.3536V88.8176H89.515L89.971 87.1536H92.515V98.3536H90.851ZM94.7569 92.7216H99.8769V94.3856H94.7569V92.7216ZM106.276 98.3536V95.4896H101.484V93.8176L105.876 87.1536H107.94V93.8256H108.964V95.4896H107.94V98.3536H106.276ZM103.42 93.8176L106.276 93.8256L106.26 89.4496L103.42 93.8176ZM115.354 98.3536V95.4896H110.562V93.8176L114.954 87.1536H117.018V93.8256H118.042V95.4896H117.018V98.3536H115.354ZM112.498 93.8176L115.354 93.8256L115.338 89.4496L112.498 93.8176Z" fill="black"/>
<path d="M78.8274 132.686L84.3234 123.15H78.1794V121.486H86.2514V123.15L80.7394 132.686H78.8274ZM91.4021 132.894C90.7408 132.894 90.1435 132.745 89.6101 132.446C89.0821 132.142 88.6261 131.723 88.2421 131.19C87.8581 130.657 87.5648 130.041 87.3621 129.342C87.1595 128.638 87.0581 127.886 87.0581 127.086C87.0581 126.286 87.1595 125.534 87.3621 124.83C87.5648 124.126 87.8581 123.51 88.2421 122.982C88.6261 122.449 89.0821 122.033 89.6101 121.734C90.1435 121.43 90.7408 121.278 91.4021 121.278C92.0528 121.278 92.6448 121.43 93.1781 121.734C93.7115 122.033 94.1648 122.449 94.5381 122.982C94.9168 123.51 95.2075 124.126 95.4101 124.83C95.6128 125.534 95.7141 126.286 95.7141 127.086C95.7141 127.886 95.6128 128.638 95.4101 129.342C95.2075 130.041 94.9168 130.657 94.5381 131.19C94.1648 131.723 93.7115 132.142 93.1781 132.446C92.6448 132.745 92.0528 132.894 91.4021 132.894ZM91.4021 131.23C92.0155 131.23 92.5248 131.038 92.9301 130.654C93.3408 130.265 93.6475 129.755 93.8501 129.126C94.0528 128.497 94.1541 127.817 94.1541 127.086C94.1541 126.318 94.0475 125.622 93.8341 124.998C93.6261 124.369 93.3168 123.87 92.9061 123.502C92.5008 123.129 91.9995 122.942 91.4021 122.942C90.9275 122.942 90.5141 123.054 90.1621 123.278C89.8155 123.502 89.5275 123.809 89.2981 124.198C89.0741 124.587 88.9035 125.03 88.7861 125.526C88.6741 126.022 88.6181 126.542 88.6181 127.086C88.6181 127.817 88.7221 128.497 88.9301 129.126C89.1381 129.755 89.4475 130.265 89.8581 130.654C90.2741 131.038 90.7888 131.23 91.4021 131.23ZM97.1475 127.054H102.268V128.718H97.1475V127.054ZM104.202 132.686L109.698 123.15H103.554V121.486H111.626V123.15L106.114 132.686H104.202ZM112.593 132.686V131.206C112.972 130.891 113.406 130.526 113.897 130.11C114.388 129.689 114.886 129.243 115.393 128.774C115.9 128.299 116.366 127.827 116.793 127.358C117.22 126.883 117.564 126.435 117.825 126.014C118.092 125.587 118.225 125.217 118.225 124.902C118.225 124.545 118.137 124.219 117.961 123.926C117.79 123.627 117.558 123.39 117.265 123.214C116.972 123.033 116.646 122.942 116.289 122.942C115.932 122.942 115.604 123.033 115.305 123.214C115.012 123.39 114.774 123.627 114.593 123.926C114.417 124.219 114.329 124.545 114.329 124.902H112.665C112.665 124.225 112.83 123.614 113.161 123.07C113.497 122.521 113.937 122.086 114.481 121.766C115.03 121.441 115.633 121.278 116.289 121.278C116.95 121.278 117.553 121.441 118.097 121.766C118.641 122.091 119.076 122.529 119.401 123.078C119.726 123.622 119.889 124.23 119.889 124.902C119.889 125.275 119.812 125.659 119.657 126.054C119.502 126.449 119.286 126.851 119.009 127.262C118.737 127.673 118.42 128.089 118.057 128.51C117.694 128.931 117.305 129.353 116.889 129.774C116.473 130.195 116.049 130.611 115.617 131.022H119.985V132.686H112.593Z" fill="black"/>
<path d="M83.6323 167.019V157.483H82.2963L82.7523 155.819H85.2963V167.019H83.6323ZM91.4022 167.227C90.7408 167.227 90.1435 167.077 89.6102 166.779C89.0822 166.475 88.6262 166.056 88.2422 165.523C87.8582 164.989 87.5648 164.373 87.3622 163.675C87.1595 162.971 87.0582 162.219 87.0582 161.419C87.0582 160.619 87.1595 159.867 87.3622 159.163C87.5648 158.459 87.8582 157.843 88.2422 157.315C88.6262 156.781 89.0822 156.365 89.6102 156.067C90.1435 155.763 90.7408 155.611 91.4022 155.611C92.0528 155.611 92.6448 155.763 93.1782 156.067C93.7115 156.365 94.1648 156.781 94.5382 157.315C94.9168 157.843 95.2075 158.459 95.4102 159.163C95.6128 159.867 95.7142 160.619 95.7142 161.419C95.7142 162.219 95.6128 162.971 95.4102 163.675C95.2075 164.373 94.9168 164.989 94.5382 165.523C94.1648 166.056 93.7115 166.475 93.1782 166.779C92.6448 167.077 92.0528 167.227 91.4022 167.227ZM91.4022 165.563C92.0155 165.563 92.5248 165.371 92.9302 164.987C93.3408 164.597 93.6475 164.088 93.8502 163.459C94.0528 162.829 94.1542 162.149 94.1542 161.419C94.1542 160.651 94.0475 159.955 93.8342 159.331C93.6262 158.701 93.3168 158.203 92.9062 157.835C92.5008 157.461 91.9995 157.275 91.4022 157.275C90.9275 157.275 90.5142 157.387 90.1622 157.611C89.8155 157.835 89.5275 158.141 89.2982 158.531C89.0742 158.92 88.9035 159.363 88.7862 159.859C88.6742 160.355 88.6182 160.875 88.6182 161.419C88.6182 162.149 88.7222 162.829 88.9302 163.459C89.1382 164.088 89.4475 164.597 89.8582 164.987C90.2742 165.371 90.7888 165.563 91.4022 165.563ZM97.1475 161.387H102.268V163.051H97.1475V161.387ZM105.21 167.019V157.483H103.874L104.33 155.819H106.874V167.019H105.21ZM108.796 167.019V165.539C109.175 165.224 109.61 164.859 110.1 164.443C110.591 164.021 111.09 163.576 111.596 163.107C112.103 162.632 112.57 162.16 112.996 161.691C113.423 161.216 113.767 160.768 114.028 160.347C114.295 159.92 114.428 159.549 114.428 159.235C114.428 158.877 114.34 158.552 114.164 158.259C113.994 157.96 113.762 157.723 113.468 157.547C113.175 157.365 112.85 157.275 112.492 157.275C112.135 157.275 111.807 157.365 111.508 157.547C111.215 157.723 110.978 157.96 110.796 158.259C110.62 158.552 110.532 158.877 110.532 159.235H108.868C108.868 158.557 109.034 157.947 109.364 157.403C109.7 156.853 110.14 156.419 110.684 156.099C111.234 155.773 111.836 155.611 112.492 155.611C113.154 155.611 113.756 155.773 114.3 156.099C114.844 156.424 115.279 156.861 115.604 157.411C115.93 157.955 116.092 158.563 116.092 159.235C116.092 159.608 116.015 159.992 115.86 160.387C115.706 160.781 115.49 161.184 115.212 161.595C114.94 162.005 114.623 162.421 114.26 162.843C113.898 163.264 113.508 163.685 113.092 164.107C112.676 164.528 112.252 164.944 111.82 165.355H116.188V167.019H108.796Z" fill="black"/>
<path d="M158.632 98.3536V95.4896H153.84V93.8176L158.232 87.1536H160.296V93.8256H161.32V95.4896H160.296V98.3536H158.632ZM155.776 93.8176L158.632 93.8256L158.616 89.4496L155.776 93.8176ZM167.71 98.3536V95.4896H162.918V93.8176L167.31 87.1536H169.374V93.8256H170.398V95.4896H169.374V98.3536H167.71ZM164.854 93.8176L167.71 93.8256L167.694 89.4496L164.854 93.8176ZM172.316 92.7216H177.436V94.3856H172.316V92.7216ZM183.835 98.3536V95.4896H179.043V93.8176L183.435 87.1536H185.499V93.8256H186.523V95.4896H185.499V98.3536H183.835ZM180.979 93.8176L183.835 93.8256L183.819 89.4496L180.979 93.8176ZM188.449 98.3536L193.945 88.8176H187.801V87.1536H195.873V88.8176L190.361 98.3536H188.449Z" fill="black"/>
<path d="M155.02 132.686L160.516 123.15H154.372V121.486H162.444V123.15L156.932 132.686H155.02ZM163.41 132.686V131.206C163.789 130.891 164.224 130.526 164.714 130.11C165.205 129.689 165.704 129.243 166.21 128.774C166.717 128.299 167.184 127.827 167.61 127.358C168.037 126.883 168.381 126.435 168.642 126.014C168.909 125.587 169.042 125.217 169.042 124.902C169.042 124.545 168.954 124.219 168.778 123.926C168.608 123.627 168.376 123.39 168.082 123.214C167.789 123.033 167.464 122.942 167.106 122.942C166.749 122.942 166.421 123.033 166.122 123.214C165.829 123.39 165.592 123.627 165.41 123.926C165.234 124.219 165.146 124.545 165.146 124.902H163.482C163.482 124.225 163.648 123.614 163.978 123.07C164.314 122.521 164.754 122.086 165.298 121.766C165.848 121.441 166.45 121.278 167.106 121.278C167.768 121.278 168.37 121.441 168.914 121.766C169.458 122.091 169.893 122.529 170.218 123.078C170.544 123.622 170.706 124.23 170.706 124.902C170.706 125.275 170.629 125.659 170.474 126.054C170.32 126.449 170.104 126.851 169.826 127.262C169.554 127.673 169.237 128.089 168.874 128.51C168.512 128.931 168.122 129.353 167.706 129.774C167.29 130.195 166.866 130.611 166.434 131.022H170.802V132.686H163.41ZM172.715 127.054H177.835V128.718H172.715V127.054ZM179.77 132.686L185.266 123.15H179.122V121.486H187.194V123.15L181.682 132.686H179.77ZM191.702 132.686V129.822H186.91V128.15L191.302 121.486H193.366V128.158H194.39V129.822H193.366V132.686H191.702ZM188.846 128.15L191.702 128.158L191.686 123.782L188.846 128.15Z" fill="black"/>
<path d="M159.2 167.019V157.483H157.864L158.32 155.819H160.864V167.019H159.2ZM162.786 167.019V165.539C163.164 165.224 163.599 164.859 164.09 164.443C164.58 164.021 165.079 163.576 165.586 163.107C166.092 162.632 166.559 162.16 166.986 161.691C167.412 161.216 167.756 160.768 168.018 160.347C168.284 159.92 168.418 159.549 168.418 159.235C168.418 158.877 168.33 158.552 168.154 158.259C167.983 157.96 167.751 157.723 167.458 157.547C167.164 157.365 166.839 157.275 166.482 157.275C166.124 157.275 165.796 157.365 165.498 157.547C165.204 157.723 164.967 157.96 164.786 158.259C164.61 158.552 164.522 158.877 164.522 159.235H162.858C162.858 158.557 163.023 157.947 163.354 157.403C163.69 156.853 164.13 156.419 164.674 156.099C165.223 155.773 165.826 155.611 166.482 155.611C167.143 155.611 167.746 155.773 168.29 156.099C168.834 156.424 169.268 156.861 169.594 157.411C169.919 157.955 170.082 158.563 170.082 159.235C170.082 159.608 170.004 159.992 169.85 160.387C169.695 160.781 169.479 161.184 169.202 161.595C168.93 162.005 168.612 162.421 168.25 162.843C167.887 163.264 167.498 163.685 167.082 164.107C166.666 164.528 166.242 164.944 165.81 165.355H170.178V167.019H162.786ZM172.09 161.387H177.21V163.051H172.09V161.387ZM180.153 167.019V157.483H178.817L179.273 155.819H181.817V167.019H180.153ZM187.443 167.227C186.733 167.227 186.091 167.056 185.515 166.715C184.944 166.368 184.491 165.909 184.155 165.339C183.824 164.763 183.659 164.133 183.659 163.451H185.323C185.323 163.84 185.419 164.195 185.611 164.515C185.803 164.835 186.059 165.091 186.379 165.283C186.699 165.469 187.053 165.563 187.443 165.563C187.827 165.563 188.179 165.469 188.499 165.283C188.819 165.091 189.075 164.835 189.267 164.515C189.459 164.195 189.555 163.84 189.555 163.451C189.555 163.061 189.467 162.707 189.291 162.387C189.115 162.061 188.851 161.803 188.499 161.611C188.147 161.413 187.699 161.315 187.155 161.315H184.331L185.467 155.819H190.883V157.483H186.819L186.379 159.651L187.347 159.667C188.109 159.683 188.779 159.859 189.355 160.195C189.936 160.525 190.392 160.973 190.723 161.539C191.053 162.099 191.219 162.736 191.219 163.451C191.219 163.968 191.12 164.456 190.923 164.915C190.725 165.368 190.453 165.768 190.107 166.115C189.765 166.461 189.365 166.733 188.907 166.931C188.453 167.128 187.965 167.227 187.443 167.227Z" fill="black"/>
<path d="M233.768 98.3536V95.4896H228.976V93.8176L233.368 87.1536H235.432V93.8256H236.456V95.4896H235.432V98.3536H233.768ZM230.912 93.8176L233.768 93.8256L233.752 89.4496L230.912 93.8176ZM238.382 98.3536L243.878 88.8176H237.734V87.1536H245.806V88.8176L240.294 98.3536H238.382ZM246.858 92.7216H251.978V94.3856H246.858V92.7216ZM258.377 98.3536V95.4896H253.585V93.8176L257.977 87.1536H260.041V93.8256H261.065V95.4896H260.041V98.3536H258.377ZM255.521 93.8176L258.377 93.8256L258.361 89.4496L255.521 93.8176ZM264.511 98.3536L266.775 94.4336C266.237 94.5349 265.711 94.5136 265.199 94.3696C264.693 94.2203 264.237 93.9776 263.831 93.6416C263.426 93.3003 263.103 92.8869 262.863 92.4016C262.623 91.9163 262.503 91.3829 262.503 90.8016C262.503 90.2736 262.602 89.7776 262.799 89.3136C263.002 88.8443 263.279 88.4336 263.631 88.0816C263.983 87.7243 264.391 87.4469 264.855 87.2496C265.325 87.0469 265.826 86.9456 266.359 86.9456C267.058 86.9456 267.698 87.1189 268.279 87.4656C268.861 87.8123 269.325 88.2789 269.671 88.8656C270.018 89.4469 270.191 90.0923 270.191 90.8016C270.191 91.1696 270.146 91.5056 270.055 91.8096C269.97 92.1136 269.834 92.4336 269.647 92.7696L266.439 98.3536H264.511ZM266.343 92.9856C266.77 92.9856 267.149 92.8843 267.479 92.6816C267.81 92.4736 268.069 92.2043 268.255 91.8736C268.447 91.5376 268.543 91.1776 268.543 90.7936C268.543 90.3776 268.442 90.0043 268.239 89.6736C268.037 89.3429 267.767 89.0816 267.431 88.8896C267.101 88.6976 266.743 88.6016 266.359 88.6016C265.933 88.6016 265.554 88.7056 265.223 88.9136C264.893 89.1216 264.631 89.3936 264.439 89.7296C264.247 90.0603 264.151 90.4149 264.151 90.7936C264.151 91.1936 264.247 91.5616 264.439 91.8976C264.637 92.2283 264.901 92.4923 265.231 92.6896C265.562 92.8869 265.933 92.9856 266.343 92.9856Z" fill="black"/>
<path d="M229.45 132.686L234.946 123.15H228.802V121.486H236.874V123.15L231.362 132.686H229.45ZM241.383 132.686V129.822H236.591V128.15L240.983 121.486H243.047V128.158H244.071V129.822H243.047V132.686H241.383ZM238.527 128.15L241.383 128.158L241.367 123.782L238.527 128.15ZM245.989 127.054H251.109V128.718H245.989V127.054ZM253.044 132.686L258.54 123.15H252.396V121.486H260.468V123.15L254.956 132.686H253.044ZM261.763 132.686L267.259 123.15H261.115V121.486H269.187V123.15L263.675 132.686H261.763Z" fill="black"/>
<path d="M234.132 167.019V157.483H232.796L233.252 155.819H235.796V167.019H234.132ZM241.422 167.227C240.713 167.227 240.07 167.056 239.494 166.715C238.923 166.368 238.47 165.909 238.134 165.339C237.803 164.763 237.638 164.133 237.638 163.451H239.302C239.302 163.84 239.398 164.195 239.59 164.515C239.782 164.835 240.038 165.091 240.358 165.283C240.678 165.469 241.033 165.563 241.422 165.563C241.806 165.563 242.158 165.469 242.478 165.283C242.798 165.091 243.054 164.835 243.246 164.515C243.438 164.195 243.534 163.84 243.534 163.451C243.534 163.061 243.446 162.707 243.27 162.387C243.094 162.061 242.83 161.803 242.478 161.611C242.126 161.413 241.678 161.315 241.134 161.315H238.31L239.446 155.819H244.862V157.483H240.798L240.358 159.651L241.326 159.667C242.089 159.683 242.758 159.859 243.334 160.195C243.915 160.525 244.371 160.973 244.702 161.539C245.033 162.099 245.198 162.736 245.198 163.451C245.198 163.968 245.099 164.456 244.902 164.915C244.705 165.368 244.433 165.768 244.086 166.115C243.745 166.461 243.345 166.733 242.886 166.931C242.433 167.128 241.945 167.227 241.422 167.227ZM247.116 161.387H252.236V163.051H247.116V161.387ZM255.179 167.019V157.483H253.843L254.299 155.819H256.843V167.019H255.179ZM259.093 167.019L264.589 157.483H258.445V155.819H266.517V157.483L261.005 167.019H259.093Z" fill="black"/>
<path d="M308.341 98.3536V95.4896H303.549V93.8176L307.941 87.1536H310.005V93.8256H311.029V95.4896H310.005V98.3536H308.341ZM305.485 93.8176L308.341 93.8256L308.325 89.4496L305.485 93.8176ZM314.475 98.3536L316.739 94.4336C316.2 94.5349 315.675 94.5136 315.163 94.3696C314.656 94.2203 314.2 93.9776 313.795 93.6416C313.39 93.3003 313.067 92.8869 312.827 92.4016C312.587 91.9163 312.467 91.3829 312.467 90.8016C312.467 90.2736 312.566 89.7776 312.763 89.3136C312.966 88.8443 313.243 88.4336 313.595 88.0816C313.947 87.7243 314.355 87.4469 314.819 87.2496C315.288 87.0469 315.79 86.9456 316.323 86.9456C317.022 86.9456 317.662 87.1189 318.243 87.4656C318.824 87.8123 319.288 88.2789 319.635 88.8656C319.982 89.4469 320.155 90.0923 320.155 90.8016C320.155 91.1696 320.11 91.5056 320.019 91.8096C319.934 92.1136 319.798 92.4336 319.611 92.7696L316.403 98.3536H314.475ZM316.307 92.9856C316.734 92.9856 317.112 92.8843 317.443 92.6816C317.774 92.4736 318.032 92.2043 318.219 91.8736C318.411 91.5376 318.507 91.1776 318.507 90.7936C318.507 90.3776 318.406 90.0043 318.203 89.6736C318 89.3429 317.731 89.0816 317.395 88.8896C317.064 88.6976 316.707 88.6016 316.323 88.6016C315.896 88.6016 315.518 88.7056 315.187 88.9136C314.856 89.1216 314.595 89.3936 314.403 89.7296C314.211 90.0603 314.115 90.4149 314.115 90.7936C314.115 91.1936 314.211 91.5616 314.403 91.8976C314.6 92.2283 314.864 92.4923 315.195 92.6896C315.526 92.8869 315.896 92.9856 316.307 92.9856ZM321.587 92.7216H326.707V94.3856H321.587V92.7216ZM332.018 98.5616C331.309 98.5616 330.666 98.3909 330.09 98.0496C329.52 97.7029 329.066 97.2443 328.73 96.6736C328.4 96.0976 328.234 95.4683 328.234 94.7856H329.898C329.898 95.1749 329.994 95.5296 330.186 95.8496C330.378 96.1696 330.634 96.4256 330.954 96.6176C331.274 96.8043 331.629 96.8976 332.018 96.8976C332.402 96.8976 332.754 96.8043 333.074 96.6176C333.394 96.4256 333.65 96.1696 333.842 95.8496C334.034 95.5296 334.13 95.1749 334.13 94.7856C334.13 94.3963 334.042 94.0416 333.866 93.7216C333.69 93.3963 333.426 93.1376 333.074 92.9456C332.722 92.7483 332.274 92.6496 331.73 92.6496H328.906L330.042 87.1536H335.458V88.8176H331.394L330.954 90.9856L331.922 91.0016C332.685 91.0176 333.354 91.1936 333.93 91.5296C334.512 91.8603 334.968 92.3083 335.298 92.8736C335.629 93.4336 335.794 94.0709 335.794 94.7856C335.794 95.3029 335.696 95.7909 335.498 96.2496C335.301 96.7029 335.029 97.1029 334.682 97.4496C334.341 97.7963 333.941 98.0683 333.482 98.2656C333.029 98.4629 332.541 98.5616 332.018 98.5616ZM338.728 98.3536V88.8176H337.392L337.848 87.1536H340.392V98.3536H338.728Z" fill="black"/>
<path d="M304.871 132.686L310.367 123.15H304.223V121.486H312.295V123.15L306.783 132.686H304.871ZM313.59 132.686L319.086 123.15H312.942V121.486H321.014V123.15L315.502 132.686H313.59ZM322.066 127.054H327.186V128.718H322.066V127.054ZM332.457 132.894C331.78 132.894 331.164 132.739 330.609 132.43C330.054 132.121 329.612 131.707 329.281 131.19C328.956 130.667 328.793 130.086 328.793 129.446C328.793 128.907 328.926 128.406 329.193 127.942C329.46 127.478 329.814 127.094 330.257 126.79C329.9 126.523 329.609 126.187 329.385 125.782C329.161 125.377 329.049 124.939 329.049 124.47C329.049 123.883 329.201 123.35 329.505 122.87C329.814 122.385 330.228 121.998 330.745 121.71C331.262 121.422 331.833 121.278 332.457 121.278C333.081 121.278 333.652 121.422 334.169 121.71C334.686 121.998 335.097 122.385 335.401 122.87C335.71 123.35 335.865 123.883 335.865 124.47C335.865 124.939 335.753 125.377 335.529 125.782C335.31 126.187 335.02 126.523 334.657 126.79C335.11 127.094 335.468 127.478 335.729 127.942C335.996 128.406 336.129 128.907 336.129 129.446C336.129 130.081 335.964 130.659 335.633 131.182C335.302 131.705 334.86 132.121 334.305 132.43C333.75 132.739 333.134 132.894 332.457 132.894ZM332.457 131.23C332.809 131.23 333.129 131.15 333.417 130.99C333.705 130.83 333.934 130.617 334.105 130.35C334.281 130.078 334.369 129.777 334.369 129.446C334.369 129.121 334.281 128.825 334.105 128.558C333.934 128.286 333.705 128.07 333.417 127.91C333.129 127.75 332.809 127.67 332.457 127.67C332.11 127.67 331.79 127.75 331.497 127.91C331.209 128.07 330.977 128.286 330.801 128.558C330.63 128.825 330.545 129.121 330.545 129.446C330.545 129.777 330.63 130.078 330.801 130.35C330.977 130.617 331.209 130.83 331.497 130.99C331.79 131.15 332.11 131.23 332.457 131.23ZM332.457 126.006C332.761 126.006 333.036 125.937 333.281 125.798C333.532 125.659 333.732 125.475 333.881 125.246C334.03 125.011 334.105 124.753 334.105 124.47C334.105 124.187 334.03 123.931 333.881 123.702C333.732 123.473 333.532 123.289 333.281 123.15C333.036 123.011 332.761 122.942 332.457 122.942C332.153 122.942 331.876 123.011 331.625 123.15C331.38 123.289 331.182 123.473 331.033 123.702C330.884 123.931 330.809 124.187 330.809 124.47C330.809 124.753 330.884 125.011 331.033 125.246C331.182 125.475 331.38 125.659 331.625 125.798C331.876 125.937 332.153 126.006 332.457 126.006ZM338.738 132.686V123.15H337.402L337.858 121.486H340.402V132.686H338.738Z" fill="black"/>
<path d="M304.947 167.019V157.483H303.611L304.067 155.819H306.611V167.019H304.947ZM308.861 167.019L314.357 157.483H308.213V155.819H316.285V157.483L310.773 167.019H308.861ZM317.337 161.387H322.457V163.051H317.337V161.387ZM324.064 167.019V165.539C324.443 165.224 324.878 164.859 325.368 164.443C325.859 164.021 326.358 163.576 326.864 163.107C327.371 162.632 327.838 162.16 328.264 161.691C328.691 161.216 329.035 160.768 329.296 160.347C329.563 159.92 329.696 159.549 329.696 159.235C329.696 158.877 329.608 158.552 329.432 158.259C329.262 157.96 329.03 157.723 328.736 157.547C328.443 157.365 328.118 157.275 327.76 157.275C327.403 157.275 327.075 157.365 326.776 157.547C326.483 157.723 326.246 157.96 326.064 158.259C325.888 158.552 325.8 158.877 325.8 159.235H324.136C324.136 158.557 324.302 157.947 324.632 157.403C324.968 156.853 325.408 156.419 325.952 156.099C326.502 155.773 327.104 155.611 327.76 155.611C328.422 155.611 329.024 155.773 329.568 156.099C330.112 156.424 330.547 156.861 330.872 157.411C331.198 157.955 331.36 158.563 331.36 159.235C331.36 159.608 331.283 159.992 331.128 160.387C330.974 160.781 330.758 161.184 330.48 161.595C330.208 162.005 329.891 162.421 329.528 162.843C329.166 163.264 328.776 163.685 328.36 164.107C327.944 164.528 327.52 164.944 327.088 165.355H331.456V167.019H324.064ZM336.826 167.227C336.165 167.227 335.568 167.077 335.034 166.779C334.506 166.475 334.05 166.056 333.666 165.523C333.282 164.989 332.989 164.373 332.786 163.675C332.584 162.971 332.482 162.219 332.482 161.419C332.482 160.619 332.584 159.867 332.786 159.163C332.989 158.459 333.282 157.843 333.666 157.315C334.05 156.781 334.506 156.365 335.034 156.067C335.568 155.763 336.165 155.611 336.826 155.611C337.477 155.611 338.069 155.763 338.602 156.067C339.136 156.365 339.589 156.781 339.962 157.315C340.341 157.843 340.632 158.459 340.834 159.163C341.037 159.867 341.138 160.619 341.138 161.419C341.138 162.219 341.037 162.971 340.834 163.675C340.632 164.373 340.341 164.989 339.962 165.523C339.589 166.056 339.136 166.475 338.602 166.779C338.069 167.077 337.477 167.227 336.826 167.227ZM336.826 165.563C337.44 165.563 337.949 165.371 338.354 164.987C338.765 164.597 339.072 164.088 339.274 163.459C339.477 162.829 339.578 162.149 339.578 161.419C339.578 160.651 339.472 159.955 339.258 159.331C339.05 158.701 338.741 158.203 338.33 157.835C337.925 157.461 337.424 157.275 336.826 157.275C336.352 157.275 335.938 157.387 335.586 157.611C335.24 157.835 334.952 158.141 334.722 158.531C334.498 158.92 334.328 159.363 334.21 159.859C334.098 160.355 334.042 160.875 334.042 161.419C334.042 162.149 334.146 162.829 334.354 163.459C334.562 164.088 334.872 164.597 335.282 164.987C335.698 165.371 336.213 165.563 336.826 165.563Z" fill="black"/>
<path d="M383.338 98.5616C382.629 98.5616 381.986 98.3909 381.41 98.0496C380.839 97.7029 380.386 97.2443 380.05 96.6736C379.719 96.0976 379.554 95.4683 379.554 94.7856H381.218C381.218 95.1749 381.314 95.5296 381.506 95.8496C381.698 96.1696 381.954 96.4256 382.274 96.6176C382.594 96.8043 382.949 96.8976 383.338 96.8976C383.722 96.8976 384.074 96.8043 384.394 96.6176C384.714 96.4256 384.97 96.1696 385.162 95.8496C385.354 95.5296 385.45 95.1749 385.45 94.7856C385.45 94.3963 385.362 94.0416 385.186 93.7216C385.01 93.3963 384.746 93.1376 384.394 92.9456C384.042 92.7483 383.594 92.6496 383.05 92.6496H380.226L381.362 87.1536H386.778V88.8176H382.714L382.274 90.9856L383.242 91.0016C384.005 91.0176 384.674 91.1936 385.25 91.5296C385.831 91.8603 386.287 92.3083 386.618 92.8736C386.949 93.4336 387.114 94.0709 387.114 94.7856C387.114 95.3029 387.015 95.7909 386.818 96.2496C386.621 96.7029 386.349 97.1029 386.002 97.4496C385.661 97.7963 385.261 98.0683 384.802 98.2656C384.349 98.4629 383.861 98.5616 383.338 98.5616ZM390.048 98.3536V88.8176H388.712L389.168 87.1536H391.712V98.3536H390.048ZM393.954 92.7216H399.074V94.3856H393.954V92.7216ZM404.385 98.5616C403.675 98.5616 403.033 98.3909 402.457 98.0496C401.886 97.7029 401.433 97.2443 401.097 96.6736C400.766 96.0976 400.601 95.4683 400.601 94.7856H402.265C402.265 95.1749 402.361 95.5296 402.553 95.8496C402.745 96.1696 403.001 96.4256 403.321 96.6176C403.641 96.8043 403.995 96.8976 404.385 96.8976C404.769 96.8976 405.121 96.8043 405.441 96.6176C405.761 96.4256 406.017 96.1696 406.209 95.8496C406.401 95.5296 406.497 95.1749 406.497 94.7856C406.497 94.3963 406.409 94.0416 406.233 93.7216C406.057 93.3963 405.793 93.1376 405.441 92.9456C405.089 92.7483 404.641 92.6496 404.097 92.6496H401.273L402.409 87.1536H407.825V88.8176H403.761L403.321 90.9856L404.289 91.0016C405.051 91.0176 405.721 91.1936 406.297 91.5296C406.878 91.8603 407.334 92.3083 407.665 92.8736C407.995 93.4336 408.161 94.0709 408.161 94.7856C408.161 95.3029 408.062 95.7909 407.865 96.2496C407.667 96.7029 407.395 97.1029 407.049 97.4496C406.707 97.7963 406.307 98.0683 405.849 98.2656C405.395 98.4629 404.907 98.5616 404.385 98.5616ZM413.151 98.5616C412.474 98.5616 411.866 98.4043 411.327 98.0896C410.794 97.7749 410.372 97.3536 410.063 96.8256C409.754 96.2976 409.599 95.7109 409.599 95.0656H411.263C411.263 95.4016 411.343 95.7083 411.503 95.9856C411.663 96.2629 411.884 96.4843 412.167 96.6496C412.45 96.8149 412.778 96.8976 413.151 96.8976C413.487 96.8976 413.799 96.8149 414.087 96.6496C414.375 96.4843 414.607 96.2629 414.783 95.9856C414.959 95.7083 415.047 95.4016 415.047 95.0656C415.047 94.6389 414.935 94.2816 414.711 93.9936C414.487 93.7056 414.175 93.4923 413.775 93.3536C413.38 93.2096 412.924 93.1376 412.407 93.1376V91.8256C413.111 91.8256 413.674 91.6869 414.095 91.4096C414.516 91.1323 414.727 90.7189 414.727 90.1696C414.727 89.8816 414.65 89.6203 414.495 89.3856C414.346 89.1456 414.146 88.9563 413.895 88.8176C413.65 88.6736 413.386 88.6016 413.103 88.6016C412.81 88.6016 412.527 88.6736 412.255 88.8176C411.988 88.9563 411.77 89.1456 411.599 89.3856C411.428 89.6203 411.343 89.8816 411.343 90.1696H409.679C409.679 89.7269 409.77 89.3109 409.951 88.9216C410.138 88.5269 410.388 88.1829 410.703 87.8896C411.023 87.5909 411.386 87.3589 411.791 87.1936C412.202 87.0229 412.631 86.9376 413.079 86.9376C413.666 86.9376 414.21 87.0843 414.711 87.3776C415.218 87.6656 415.623 88.0549 415.927 88.5456C416.236 89.0309 416.391 89.5723 416.391 90.1696C416.391 90.6443 416.274 91.0949 416.039 91.5216C415.81 91.9429 415.49 92.2416 415.079 92.4176C415.436 92.5456 415.735 92.7483 415.975 93.0256C416.22 93.2976 416.404 93.6123 416.527 93.9696C416.65 94.3216 416.711 94.6869 416.711 95.0656C416.711 95.7056 416.548 96.2923 416.223 96.8256C415.898 97.3536 415.463 97.7749 414.919 98.0896C414.38 98.4043 413.791 98.5616 413.151 98.5616Z" fill="black"/>
<path d="M383.438 132.894C382.761 132.894 382.145 132.739 381.59 132.43C381.036 132.121 380.593 131.707 380.262 131.19C379.937 130.667 379.774 130.086 379.774 129.446C379.774 128.907 379.908 128.406 380.174 127.942C380.441 127.478 380.796 127.094 381.238 126.79C380.881 126.523 380.59 126.187 380.366 125.782C380.142 125.377 380.03 124.939 380.03 124.47C380.03 123.883 380.182 123.35 380.486 122.87C380.796 122.385 381.209 121.998 381.726 121.71C382.244 121.422 382.814 121.278 383.438 121.278C384.062 121.278 384.633 121.422 385.15 121.71C385.668 121.998 386.078 122.385 386.382 122.87C386.692 123.35 386.846 123.883 386.846 124.47C386.846 124.939 386.734 125.377 386.51 125.782C386.292 126.187 386.001 126.523 385.638 126.79C386.092 127.094 386.449 127.478 386.71 127.942C386.977 128.406 387.11 128.907 387.11 129.446C387.11 130.081 386.945 130.659 386.614 131.182C386.284 131.705 385.841 132.121 385.286 132.43C384.732 132.739 384.116 132.894 383.438 132.894ZM383.438 131.23C383.79 131.23 384.11 131.15 384.398 130.99C384.686 130.83 384.916 130.617 385.086 130.35C385.262 130.078 385.35 129.777 385.35 129.446C385.35 129.121 385.262 128.825 385.086 128.558C384.916 128.286 384.686 128.07 384.398 127.91C384.11 127.75 383.79 127.67 383.438 127.67C383.092 127.67 382.772 127.75 382.478 127.91C382.19 128.07 381.958 128.286 381.782 128.558C381.612 128.825 381.526 129.121 381.526 129.446C381.526 129.777 381.612 130.078 381.782 130.35C381.958 130.617 382.19 130.83 382.478 130.99C382.772 131.15 383.092 131.23 383.438 131.23ZM383.438 126.006C383.742 126.006 384.017 125.937 384.262 125.798C384.513 125.659 384.713 125.475 384.862 125.246C385.012 125.011 385.086 124.753 385.086 124.47C385.086 124.187 385.012 123.931 384.862 123.702C384.713 123.473 384.513 123.289 384.262 123.15C384.017 123.011 383.742 122.942 383.438 122.942C383.134 122.942 382.857 123.011 382.606 123.15C382.361 123.289 382.164 123.473 382.014 123.702C381.865 123.931 381.79 124.187 381.79 124.47C381.79 124.753 381.865 125.011 382.014 125.246C382.164 125.475 382.361 125.659 382.606 125.798C382.857 125.937 383.134 126.006 383.438 126.006ZM389.72 132.686V123.15H388.384L388.84 121.486H391.384V132.686H389.72ZM393.626 127.054H398.746V128.718H393.626V127.054ZM404.017 132.894C403.339 132.894 402.723 132.739 402.169 132.43C401.614 132.121 401.171 131.707 400.841 131.19C400.515 130.667 400.353 130.086 400.353 129.446C400.353 128.907 400.486 128.406 400.753 127.942C401.019 127.478 401.374 127.094 401.817 126.79C401.459 126.523 401.169 126.187 400.945 125.782C400.721 125.377 400.609 124.939 400.609 124.47C400.609 123.883 400.761 123.35 401.065 122.87C401.374 122.385 401.787 121.998 402.305 121.71C402.822 121.422 403.393 121.278 404.017 121.278C404.641 121.278 405.211 121.422 405.729 121.71C406.246 121.998 406.657 122.385 406.961 122.87C407.27 123.35 407.425 123.883 407.425 124.47C407.425 124.939 407.313 125.377 407.089 125.782C406.87 126.187 406.579 126.523 406.217 126.79C406.67 127.094 407.027 127.478 407.289 127.942C407.555 128.406 407.689 128.907 407.689 129.446C407.689 130.081 407.523 130.659 407.193 131.182C406.862 131.705 406.419 132.121 405.865 132.43C405.31 132.739 404.694 132.894 404.017 132.894ZM404.017 131.23C404.369 131.23 404.689 131.15 404.977 130.99C405.265 130.83 405.494 130.617 405.665 130.35C405.841 130.078 405.929 129.777 405.929 129.446C405.929 129.121 405.841 128.825 405.665 128.558C405.494 128.286 405.265 128.07 404.977 127.91C404.689 127.75 404.369 127.67 404.017 127.67C403.67 127.67 403.35 127.75 403.057 127.91C402.769 128.07 402.537 128.286 402.361 128.558C402.19 128.825 402.105 129.121 402.105 129.446C402.105 129.777 402.19 130.078 402.361 130.35C402.537 130.617 402.769 130.83 403.057 130.99C403.35 131.15 403.67 131.23 404.017 131.23ZM404.017 126.006C404.321 126.006 404.595 125.937 404.841 125.798C405.091 125.659 405.291 125.475 405.441 125.246C405.59 125.011 405.665 124.753 405.665 124.47C405.665 124.187 405.59 123.931 405.441 123.702C405.291 123.473 405.091 123.289 404.841 123.15C404.595 123.011 404.321 122.942 404.017 122.942C403.713 122.942 403.435 123.011 403.185 123.15C402.939 123.289 402.742 123.473 402.593 123.702C402.443 123.931 402.369 124.187 402.369 124.47C402.369 124.753 402.443 125.011 402.593 125.246C402.742 125.475 402.939 125.659 403.185 125.798C403.435 125.937 403.713 126.006 404.017 126.006ZM412.634 132.894C411.919 132.894 411.266 132.718 410.674 132.366C410.082 132.009 409.607 131.534 409.25 130.942C408.898 130.345 408.722 129.686 408.722 128.966C408.722 128.582 408.767 128.235 408.858 127.926C408.949 127.617 409.087 127.291 409.274 126.95L412.426 121.486H414.362L412.178 125.262C412.621 125.177 413.053 125.174 413.474 125.254C413.901 125.329 414.301 125.475 414.674 125.694C415.047 125.907 415.375 126.179 415.658 126.51C415.946 126.835 416.17 127.206 416.33 127.622C416.49 128.038 416.57 128.486 416.57 128.966C416.57 129.505 416.466 130.011 416.258 130.486C416.055 130.961 415.773 131.379 415.41 131.742C415.053 132.099 414.634 132.382 414.154 132.59C413.679 132.793 413.173 132.894 412.634 132.894ZM412.634 131.23C413.071 131.23 413.461 131.123 413.802 130.91C414.143 130.697 414.413 130.417 414.61 130.07C414.807 129.723 414.906 129.355 414.906 128.966C414.906 128.555 414.805 128.179 414.602 127.838C414.405 127.497 414.135 127.225 413.794 127.022C413.453 126.814 413.071 126.71 412.65 126.71C412.213 126.71 411.823 126.817 411.482 127.03C411.141 127.243 410.871 127.521 410.674 127.862C410.482 128.203 410.386 128.571 410.386 128.966C410.386 129.398 410.49 129.785 410.698 130.126C410.911 130.467 411.189 130.737 411.53 130.934C411.871 131.131 412.239 131.23 412.634 131.23Z" fill="black"/>
<path d="M377.587 167.019V165.539C377.966 165.224 378.4 164.859 378.891 164.443C379.382 164.021 379.88 163.576 380.387 163.107C380.894 162.632 381.36 162.16 381.787 161.691C382.214 161.216 382.558 160.768 382.819 160.347C383.086 159.92 383.219 159.549 383.219 159.235C383.219 158.877 383.131 158.552 382.955 158.259C382.784 157.96 382.552 157.723 382.259 157.547C381.966 157.365 381.64 157.275 381.283 157.275C380.926 157.275 380.598 157.365 380.299 157.547C380.006 157.723 379.768 157.96 379.587 158.259C379.411 158.552 379.323 158.877 379.323 159.235H377.659C377.659 158.557 377.824 157.947 378.155 157.403C378.491 156.853 378.931 156.419 379.475 156.099C380.024 155.773 380.627 155.611 381.283 155.611C381.944 155.611 382.547 155.773 383.091 156.099C383.635 156.424 384.07 156.861 384.395 157.411C384.72 157.955 384.883 158.563 384.883 159.235C384.883 159.608 384.806 159.992 384.651 160.387C384.496 160.781 384.28 161.184 384.003 161.595C383.731 162.005 383.414 162.421 383.051 162.843C382.688 163.264 382.299 163.685 381.883 164.107C381.467 164.528 381.043 164.944 380.611 165.355H384.979V167.019H377.587ZM390.349 167.227C389.688 167.227 389.09 167.077 388.557 166.779C388.029 166.475 387.573 166.056 387.189 165.523C386.805 164.989 386.512 164.373 386.309 163.675C386.106 162.971 386.005 162.219 386.005 161.419C386.005 160.619 386.106 159.867 386.309 159.163C386.512 158.459 386.805 157.843 387.189 157.315C387.573 156.781 388.029 156.365 388.557 156.067C389.09 155.763 389.688 155.611 390.349 155.611C391 155.611 391.592 155.763 392.125 156.067C392.658 156.365 393.112 156.781 393.485 157.315C393.864 157.843 394.154 158.459 394.357 159.163C394.56 159.867 394.661 160.619 394.661 161.419C394.661 162.219 394.56 162.971 394.357 163.675C394.154 164.373 393.864 164.989 393.485 165.523C393.112 166.056 392.658 166.475 392.125 166.779C391.592 167.077 391 167.227 390.349 167.227ZM390.349 165.563C390.962 165.563 391.472 165.371 391.877 164.987C392.288 164.597 392.594 164.088 392.797 163.459C393 162.829 393.101 162.149 393.101 161.419C393.101 160.651 392.994 159.955 392.781 159.331C392.573 158.701 392.264 158.203 391.853 157.835C391.448 157.461 390.946 157.275 390.349 157.275C389.874 157.275 389.461 157.387 389.109 157.611C388.762 157.835 388.474 158.141 388.245 158.531C388.021 158.92 387.85 159.363 387.733 159.859C387.621 160.355 387.565 160.875 387.565 161.419C387.565 162.149 387.669 162.829 387.877 163.459C388.085 164.088 388.394 164.597 388.805 164.987C389.221 165.371 389.736 165.563 390.349 165.563ZM396.094 161.387H401.214V163.051H396.094V161.387ZM402.821 167.019V165.539C403.2 165.224 403.635 164.859 404.125 164.443C404.616 164.021 405.115 163.576 405.621 163.107C406.128 162.632 406.595 162.16 407.021 161.691C407.448 161.216 407.792 160.768 408.053 160.347C408.32 159.92 408.453 159.549 408.453 159.235C408.453 158.877 408.365 158.552 408.189 158.259C408.019 157.96 407.787 157.723 407.493 157.547C407.2 157.365 406.875 157.275 406.517 157.275C406.16 157.275 405.832 157.365 405.533 157.547C405.24 157.723 405.003 157.96 404.821 158.259C404.645 158.552 404.557 158.877 404.557 159.235H402.893C402.893 158.557 403.059 157.947 403.389 157.403C403.725 156.853 404.165 156.419 404.709 156.099C405.259 155.773 405.861 155.611 406.517 155.611C407.179 155.611 407.781 155.773 408.325 156.099C408.869 156.424 409.304 156.861 409.629 157.411C409.955 157.955 410.117 158.563 410.117 159.235C410.117 159.608 410.04 159.992 409.885 160.387C409.731 160.781 409.515 161.184 409.237 161.595C408.965 162.005 408.648 162.421 408.285 162.843C407.923 163.264 407.533 163.685 407.117 164.107C406.701 164.528 406.277 164.944 405.845 165.355H410.213V167.019H402.821ZM415.198 167.227C414.52 167.227 413.912 167.069 413.374 166.755C412.84 166.44 412.419 166.019 412.11 165.491C411.8 164.963 411.646 164.376 411.646 163.731H413.31C413.31 164.067 413.39 164.373 413.55 164.651C413.71 164.928 413.931 165.149 414.214 165.315C414.496 165.48 414.824 165.563 415.198 165.563C415.534 165.563 415.846 165.48 416.134 165.315C416.422 165.149 416.654 164.928 416.83 164.651C417.006 164.373 417.094 164.067 417.094 163.731C417.094 163.304 416.982 162.947 416.758 162.659C416.534 162.371 416.222 162.157 415.822 162.019C415.427 161.875 414.971 161.803 414.454 161.803V160.491C415.158 160.491 415.72 160.352 416.142 160.075C416.563 159.797 416.774 159.384 416.774 158.835C416.774 158.547 416.696 158.285 416.542 158.051C416.392 157.811 416.192 157.621 415.942 157.483C415.696 157.339 415.432 157.267 415.15 157.267C414.856 157.267 414.574 157.339 414.302 157.483C414.035 157.621 413.816 157.811 413.646 158.051C413.475 158.285 413.39 158.547 413.39 158.835H411.726C411.726 158.392 411.816 157.976 411.998 157.587C412.184 157.192 412.435 156.848 412.75 156.555C413.07 156.256 413.432 156.024 413.838 155.859C414.248 155.688 414.678 155.603 415.126 155.603C415.712 155.603 416.256 155.749 416.758 156.043C417.264 156.331 417.67 156.72 417.974 157.211C418.283 157.696 418.438 158.237 418.438 158.835C418.438 159.309 418.32 159.76 418.086 160.187C417.856 160.608 417.536 160.907 417.126 161.083C417.483 161.211 417.782 161.413 418.022 161.691C418.267 161.963 418.451 162.277 418.574 162.635C418.696 162.987 418.758 163.352 418.758 163.731C418.758 164.371 418.595 164.957 418.27 165.491C417.944 166.019 417.51 166.44 416.966 166.755C416.427 167.069 415.838 167.227 415.198 167.227Z" fill="black"/>
<path d="M449.705 98.5616C448.996 98.5616 448.353 98.3909 447.777 98.0496C447.207 97.7029 446.753 97.2443 446.417 96.6736C446.087 96.0976 445.921 95.4683 445.921 94.7856H447.585C447.585 95.1749 447.681 95.5296 447.873 95.8496C448.065 96.1696 448.321 96.4256 448.641 96.6176C448.961 96.8043 449.316 96.8976 449.705 96.8976C450.089 96.8976 450.441 96.8043 450.761 96.6176C451.081 96.4256 451.337 96.1696 451.529 95.8496C451.721 95.5296 451.817 95.1749 451.817 94.7856C451.817 94.3963 451.729 94.0416 451.553 93.7216C451.377 93.3963 451.113 93.1376 450.761 92.9456C450.409 92.7483 449.961 92.6496 449.417 92.6496H446.593L447.729 87.1536H453.145V88.8176H449.081L448.641 90.9856L449.609 91.0016C450.372 91.0176 451.041 91.1936 451.617 91.5296C452.199 91.8603 452.655 92.3083 452.985 92.8736C453.316 93.4336 453.481 94.0709 453.481 94.7856C453.481 95.3029 453.383 95.7909 453.185 96.2496C452.988 96.7029 452.716 97.1029 452.369 97.4496C452.028 97.7963 451.628 98.0683 451.169 98.2656C450.716 98.4629 450.228 98.5616 449.705 98.5616ZM458.471 98.5616C457.794 98.5616 457.186 98.4043 456.647 98.0896C456.114 97.7749 455.693 97.3536 455.383 96.8256C455.074 96.2976 454.919 95.7109 454.919 95.0656H456.583C456.583 95.4016 456.663 95.7083 456.823 95.9856C456.983 96.2629 457.205 96.4843 457.487 96.6496C457.77 96.8149 458.098 96.8976 458.471 96.8976C458.807 96.8976 459.119 96.8149 459.407 96.6496C459.695 96.4843 459.927 96.2629 460.103 95.9856C460.279 95.7083 460.367 95.4016 460.367 95.0656C460.367 94.6389 460.255 94.2816 460.031 93.9936C459.807 93.7056 459.495 93.4923 459.095 93.3536C458.701 93.2096 458.245 93.1376 457.727 93.1376V91.8256C458.431 91.8256 458.994 91.6869 459.415 91.4096C459.837 91.1323 460.047 90.7189 460.047 90.1696C460.047 89.8816 459.97 89.6203 459.815 89.3856C459.666 89.1456 459.466 88.9563 459.215 88.8176C458.97 88.6736 458.706 88.6016 458.423 88.6016C458.13 88.6016 457.847 88.6736 457.575 88.8176C457.309 88.9563 457.09 89.1456 456.919 89.3856C456.749 89.6203 456.663 89.8816 456.663 90.1696H454.999C454.999 89.7269 455.09 89.3109 455.271 88.9216C455.458 88.5269 455.709 88.1829 456.023 87.8896C456.343 87.5909 456.706 87.3589 457.111 87.1936C457.522 87.0229 457.951 86.9376 458.399 86.9376C458.986 86.9376 459.53 87.0843 460.031 87.3776C460.538 87.6656 460.943 88.0549 461.247 88.5456C461.557 89.0309 461.711 89.5723 461.711 90.1696C461.711 90.6443 461.594 91.0949 461.359 91.5216C461.13 91.9429 460.81 92.2416 460.399 92.4176C460.757 92.5456 461.055 92.7483 461.295 93.0256C461.541 93.2976 461.725 93.6123 461.847 93.9696C461.97 94.3216 462.031 94.6869 462.031 95.0656C462.031 95.7056 461.869 96.2923 461.543 96.8256C461.218 97.3536 460.783 97.7749 460.239 98.0896C459.701 98.4043 459.111 98.5616 458.471 98.5616ZM463.478 92.7216H468.598V94.3856H463.478V92.7216ZM473.908 98.5616C473.199 98.5616 472.556 98.3909 471.98 98.0496C471.41 97.7029 470.956 97.2443 470.62 96.6736C470.29 96.0976 470.124 95.4683 470.124 94.7856H471.788C471.788 95.1749 471.884 95.5296 472.076 95.8496C472.268 96.1696 472.524 96.4256 472.844 96.6176C473.164 96.8043 473.519 96.8976 473.908 96.8976C474.292 96.8976 474.644 96.8043 474.964 96.6176C475.284 96.4256 475.54 96.1696 475.732 95.8496C475.924 95.5296 476.02 95.1749 476.02 94.7856C476.02 94.3963 475.932 94.0416 475.756 93.7216C475.58 93.3963 475.316 93.1376 474.964 92.9456C474.612 92.7483 474.164 92.6496 473.62 92.6496H470.796L471.932 87.1536H477.348V88.8176H473.284L472.844 90.9856L473.812 91.0016C474.575 91.0176 475.244 91.1936 475.82 91.5296C476.402 91.8603 476.858 92.3083 477.188 92.8736C477.519 93.4336 477.684 94.0709 477.684 94.7856C477.684 95.3029 477.586 95.7909 477.388 96.2496C477.191 96.7029 476.919 97.1029 476.572 97.4496C476.231 97.7963 475.831 98.0683 475.372 98.2656C474.919 98.4629 474.431 98.5616 473.908 98.5616ZM482.955 98.5616C482.24 98.5616 481.587 98.3856 480.995 98.0336C480.403 97.6763 479.928 97.2016 479.571 96.6096C479.219 96.0123 479.043 95.3536 479.043 94.6336C479.043 94.2496 479.088 93.9029 479.179 93.5936C479.269 93.2843 479.408 92.9589 479.595 92.6176L482.747 87.1536H484.683L482.499 90.9296C482.941 90.8443 483.373 90.8416 483.795 90.9216C484.221 90.9963 484.621 91.1429 484.995 91.3616C485.368 91.5749 485.696 91.8469 485.979 92.1776C486.267 92.5029 486.491 92.8736 486.651 93.2896C486.811 93.7056 486.891 94.1536 486.891 94.6336C486.891 95.1723 486.787 95.6789 486.579 96.1536C486.376 96.6283 486.093 97.0469 485.731 97.4096C485.373 97.7669 484.955 98.0496 484.475 98.2576C484 98.4603 483.493 98.5616 482.955 98.5616ZM482.955 96.8976C483.392 96.8976 483.781 96.7909 484.123 96.5776C484.464 96.3643 484.733 96.0843 484.931 95.7376C485.128 95.3909 485.227 95.0229 485.227 94.6336C485.227 94.2229 485.125 93.8469 484.923 93.5056C484.725 93.1643 484.456 92.8923 484.115 92.6896C483.773 92.4816 483.392 92.3776 482.971 92.3776C482.533 92.3776 482.144 92.4843 481.803 92.6976C481.461 92.9109 481.192 93.1883 480.995 93.5296C480.803 93.8709 480.707 94.2389 480.707 94.6336C480.707 95.0656 480.811 95.4523 481.019 95.7936C481.232 96.1349 481.509 96.4043 481.851 96.6016C482.192 96.7989 482.56 96.8976 482.955 96.8976Z" fill="black"/>
<path d="M448.851 132.894C448.173 132.894 447.557 132.739 447.003 132.43C446.448 132.121 446.005 131.707 445.675 131.19C445.349 130.667 445.187 130.086 445.187 129.446C445.187 128.907 445.32 128.406 445.587 127.942C445.853 127.478 446.208 127.094 446.651 126.79C446.293 126.523 446.003 126.187 445.779 125.782C445.555 125.377 445.443 124.939 445.443 124.47C445.443 123.883 445.595 123.35 445.899 122.87C446.208 122.385 446.621 121.998 447.139 121.71C447.656 121.422 448.227 121.278 448.851 121.278C449.475 121.278 450.045 121.422 450.563 121.71C451.08 121.998 451.491 122.385 451.795 122.87C452.104 123.35 452.259 123.883 452.259 124.47C452.259 124.939 452.147 125.377 451.923 125.782C451.704 126.187 451.413 126.523 451.051 126.79C451.504 127.094 451.861 127.478 452.123 127.942C452.389 128.406 452.523 128.907 452.523 129.446C452.523 130.081 452.357 130.659 452.027 131.182C451.696 131.705 451.253 132.121 450.699 132.43C450.144 132.739 449.528 132.894 448.851 132.894ZM448.851 131.23C449.203 131.23 449.523 131.15 449.811 130.99C450.099 130.83 450.328 130.617 450.499 130.35C450.675 130.078 450.763 129.777 450.763 129.446C450.763 129.121 450.675 128.825 450.499 128.558C450.328 128.286 450.099 128.07 449.811 127.91C449.523 127.75 449.203 127.67 448.851 127.67C448.504 127.67 448.184 127.75 447.891 127.91C447.603 128.07 447.371 128.286 447.195 128.558C447.024 128.825 446.939 129.121 446.939 129.446C446.939 129.777 447.024 130.078 447.195 130.35C447.371 130.617 447.603 130.83 447.891 130.99C448.184 131.15 448.504 131.23 448.851 131.23ZM448.851 126.006C449.155 126.006 449.429 125.937 449.675 125.798C449.925 125.659 450.125 125.475 450.275 125.246C450.424 125.011 450.499 124.753 450.499 124.47C450.499 124.187 450.424 123.931 450.275 123.702C450.125 123.473 449.925 123.289 449.675 123.15C449.429 123.011 449.155 122.942 448.851 122.942C448.547 122.942 448.269 123.011 448.019 123.15C447.773 123.289 447.576 123.473 447.427 123.702C447.277 123.931 447.203 124.187 447.203 124.47C447.203 124.753 447.277 125.011 447.427 125.246C447.576 125.475 447.773 125.659 448.019 125.798C448.269 125.937 448.547 126.006 448.851 126.006ZM457.468 132.894C456.753 132.894 456.1 132.718 455.508 132.366C454.916 132.009 454.441 131.534 454.084 130.942C453.732 130.345 453.556 129.686 453.556 128.966C453.556 128.582 453.601 128.235 453.692 127.926C453.783 127.617 453.921 127.291 454.108 126.95L457.26 121.486H459.196L457.012 125.262C457.455 125.177 457.887 125.174 458.308 125.254C458.735 125.329 459.135 125.475 459.508 125.694C459.881 125.907 460.209 126.179 460.492 126.51C460.78 126.835 461.004 127.206 461.164 127.622C461.324 128.038 461.404 128.486 461.404 128.966C461.404 129.505 461.3 130.011 461.092 130.486C460.889 130.961 460.607 131.379 460.244 131.742C459.887 132.099 459.468 132.382 458.988 132.59C458.513 132.793 458.007 132.894 457.468 132.894ZM457.468 131.23C457.905 131.23 458.295 131.123 458.636 130.91C458.977 130.697 459.247 130.417 459.444 130.07C459.641 129.723 459.74 129.355 459.74 128.966C459.74 128.555 459.639 128.179 459.436 127.838C459.239 127.497 458.969 127.225 458.628 127.022C458.287 126.814 457.905 126.71 457.484 126.71C457.047 126.71 456.657 126.817 456.316 127.03C455.975 127.243 455.705 127.521 455.508 127.862C455.316 128.203 455.22 128.571 455.22 128.966C455.22 129.398 455.324 129.785 455.532 130.126C455.745 130.467 456.023 130.737 456.364 130.934C456.705 131.131 457.073 131.23 457.468 131.23ZM462.85 127.054H467.97V128.718H462.85V127.054ZM471.425 132.686L473.689 128.766C473.151 128.867 472.625 128.846 472.113 128.702C471.607 128.553 471.151 128.31 470.745 127.974C470.34 127.633 470.017 127.219 469.777 126.734C469.537 126.249 469.417 125.715 469.417 125.134C469.417 124.606 469.516 124.11 469.713 123.646C469.916 123.177 470.193 122.766 470.545 122.414C470.897 122.057 471.305 121.779 471.769 121.582C472.239 121.379 472.74 121.278 473.273 121.278C473.972 121.278 474.612 121.451 475.193 121.798C475.775 122.145 476.239 122.611 476.585 123.198C476.932 123.779 477.105 124.425 477.105 125.134C477.105 125.502 477.06 125.838 476.969 126.142C476.884 126.446 476.748 126.766 476.561 127.102L473.353 132.686H471.425ZM473.257 127.318C473.684 127.318 474.063 127.217 474.393 127.014C474.724 126.806 474.983 126.537 475.169 126.206C475.361 125.87 475.457 125.51 475.457 125.126C475.457 124.71 475.356 124.337 475.153 124.006C474.951 123.675 474.681 123.414 474.345 123.222C474.015 123.03 473.657 122.934 473.273 122.934C472.847 122.934 472.468 123.038 472.137 123.246C471.807 123.454 471.545 123.726 471.353 124.062C471.161 124.393 471.065 124.747 471.065 125.126C471.065 125.526 471.161 125.894 471.353 126.23C471.551 126.561 471.815 126.825 472.145 127.022C472.476 127.219 472.847 127.318 473.257 127.318ZM482.402 132.894C481.741 132.894 481.143 132.745 480.61 132.446C480.082 132.142 479.626 131.723 479.242 131.19C478.858 130.657 478.565 130.041 478.362 129.342C478.159 128.638 478.058 127.886 478.058 127.086C478.058 126.286 478.159 125.534 478.362 124.83C478.565 124.126 478.858 123.51 479.242 122.982C479.626 122.449 480.082 122.033 480.61 121.734C481.143 121.43 481.741 121.278 482.402 121.278C483.053 121.278 483.645 121.43 484.178 121.734C484.711 122.033 485.165 122.449 485.538 122.982C485.917 123.51 486.207 124.126 486.41 124.83C486.613 125.534 486.714 126.286 486.714 127.086C486.714 127.886 486.613 128.638 486.41 129.342C486.207 130.041 485.917 130.657 485.538 131.19C485.165 131.723 484.711 132.142 484.178 132.446C483.645 132.745 483.053 132.894 482.402 132.894ZM482.402 131.23C483.015 131.23 483.525 131.038 483.93 130.654C484.341 130.265 484.647 129.755 484.85 129.126C485.053 128.497 485.154 127.817 485.154 127.086C485.154 126.318 485.047 125.622 484.834 124.998C484.626 124.369 484.317 123.87 483.906 123.502C483.501 123.129 482.999 122.942 482.402 122.942C481.927 122.942 481.514 123.054 481.162 123.278C480.815 123.502 480.527 123.809 480.298 124.198C480.074 124.587 479.903 125.03 479.786 125.526C479.674 126.022 479.618 126.542 479.618 127.086C479.618 127.817 479.722 128.497 479.93 129.126C480.138 129.755 480.447 130.265 480.858 130.654C481.274 131.038 481.789 131.23 482.402 131.23Z" fill="black"/>
<path d="M446.103 167.019V165.539C446.482 165.224 446.916 164.859 447.407 164.443C447.898 164.021 448.396 163.576 448.903 163.107C449.41 162.632 449.876 162.16 450.303 161.691C450.73 161.216 451.074 160.768 451.335 160.347C451.602 159.92 451.735 159.549 451.735 159.235C451.735 158.877 451.647 158.552 451.471 158.259C451.3 157.96 451.068 157.723 450.775 157.547C450.482 157.365 450.156 157.275 449.799 157.275C449.442 157.275 449.114 157.365 448.815 157.547C448.522 157.723 448.284 157.96 448.103 158.259C447.927 158.552 447.839 158.877 447.839 159.235H446.175C446.175 158.557 446.34 157.947 446.671 157.403C447.007 156.853 447.447 156.419 447.991 156.099C448.54 155.773 449.143 155.611 449.799 155.611C450.46 155.611 451.063 155.773 451.607 156.099C452.151 156.424 452.586 156.861 452.911 157.411C453.236 157.955 453.399 158.563 453.399 159.235C453.399 159.608 453.322 159.992 453.167 160.387C453.012 160.781 452.796 161.184 452.519 161.595C452.247 162.005 451.93 162.421 451.567 162.843C451.204 163.264 450.815 163.685 450.399 164.107C449.983 164.528 449.559 164.944 449.127 165.355H453.495V167.019H446.103ZM458.479 167.227C457.802 167.227 457.194 167.069 456.655 166.755C456.122 166.44 455.701 166.019 455.391 165.491C455.082 164.963 454.927 164.376 454.927 163.731H456.591C456.591 164.067 456.671 164.373 456.831 164.651C456.991 164.928 457.213 165.149 457.495 165.315C457.778 165.48 458.106 165.563 458.479 165.563C458.815 165.563 459.127 165.48 459.415 165.315C459.703 165.149 459.935 164.928 460.111 164.651C460.287 164.373 460.375 164.067 460.375 163.731C460.375 163.304 460.263 162.947 460.039 162.659C459.815 162.371 459.503 162.157 459.103 162.019C458.709 161.875 458.253 161.803 457.735 161.803V160.491C458.439 160.491 459.002 160.352 459.423 160.075C459.845 159.797 460.055 159.384 460.055 158.835C460.055 158.547 459.978 158.285 459.823 158.051C459.674 157.811 459.474 157.621 459.223 157.483C458.978 157.339 458.714 157.267 458.431 157.267C458.138 157.267 457.855 157.339 457.583 157.483C457.317 157.621 457.098 157.811 456.927 158.051C456.757 158.285 456.671 158.547 456.671 158.835H455.007C455.007 158.392 455.098 157.976 455.279 157.587C455.466 157.192 455.717 156.848 456.031 156.555C456.351 156.256 456.714 156.024 457.119 155.859C457.53 155.688 457.959 155.603 458.407 155.603C458.994 155.603 459.538 155.749 460.039 156.043C460.546 156.331 460.951 156.72 461.255 157.211C461.565 157.696 461.719 158.237 461.719 158.835C461.719 159.309 461.602 159.76 461.367 160.187C461.138 160.608 460.818 160.907 460.407 161.083C460.765 161.211 461.063 161.413 461.303 161.691C461.549 161.963 461.733 162.277 461.855 162.635C461.978 162.987 462.039 163.352 462.039 163.731C462.039 164.371 461.877 164.957 461.551 165.491C461.226 166.019 460.791 166.44 460.247 166.755C459.709 167.069 459.119 167.227 458.479 167.227ZM463.485 161.387H468.605V163.051H463.485V161.387ZM470.212 167.019V165.539C470.591 165.224 471.026 164.859 471.516 164.443C472.007 164.021 472.506 163.576 473.012 163.107C473.519 162.632 473.986 162.16 474.412 161.691C474.839 161.216 475.183 160.768 475.444 160.347C475.711 159.92 475.844 159.549 475.844 159.235C475.844 158.877 475.756 158.552 475.58 158.259C475.41 157.96 475.178 157.723 474.884 157.547C474.591 157.365 474.266 157.275 473.908 157.275C473.551 157.275 473.223 157.365 472.924 157.547C472.631 157.723 472.394 157.96 472.212 158.259C472.036 158.552 471.948 158.877 471.948 159.235H470.284C470.284 158.557 470.45 157.947 470.78 157.403C471.116 156.853 471.556 156.419 472.1 156.099C472.65 155.773 473.252 155.611 473.908 155.611C474.57 155.611 475.172 155.773 475.716 156.099C476.26 156.424 476.695 156.861 477.02 157.411C477.346 157.955 477.508 158.563 477.508 159.235C477.508 159.608 477.431 159.992 477.276 160.387C477.122 160.781 476.906 161.184 476.628 161.595C476.356 162.005 476.039 162.421 475.676 162.843C475.314 163.264 474.924 163.685 474.508 164.107C474.092 164.528 473.668 164.944 473.236 165.355H477.604V167.019H470.212ZM479.525 167.019L485.021 157.483H478.877V155.819H486.949V157.483L481.437 167.019H479.525Z" fill="black"/>
<line x1="83.334" y1="62.7234" x2="116.467" y2="62.7234" stroke="#FFDA07" stroke-width="6"/>
<line x1="5.98888" y1="96.7023" x2="59.9889" y2="96.5022" stroke="#FFDA07" stroke-width="6"/>
<line x1="5.98888" y1="130.702" x2="59.9889" y2="130.502" stroke="#FFDA07" stroke-width="6"/>
<line x1="4.98888" y1="165.2" x2="58.9889" y2="165" stroke="#FFDA07" stroke-width="6"/>
<line x1="157.632" y1="62.7234" x2="190.765" y2="62.7234" stroke="#FFDA07" stroke-width="6"/>
<line x1="230.926" y1="62.7234" x2="264.058" y2="62.7234" stroke="#FFDA07" stroke-width="6"/>
<line x1="306.227" y1="62.7234" x2="339.36" y2="62.7234" stroke="#FFDA07" stroke-width="6"/>
<line x1="377.513" y1="62.7234" x2="418.678" y2="62.7234" stroke="#FFDA07" stroke-width="6"/>
<line x1="439.762" y1="62.7234" x2="492.976" y2="62.7234" stroke="#FFDA07" stroke-width="6"/>
<path d="M99.8992 64.2291C99.2858 64.2291 98.6965 64.1331 98.1312 63.9411C97.5658 63.7491 97.0725 63.4744 96.6512 63.1171C96.2298 62.7544 95.9285 62.3251 95.7472 61.8291L97.3072 61.2451C97.3978 61.5011 97.5712 61.7304 97.8272 61.9331C98.0885 62.1304 98.3978 62.2851 98.7552 62.3971C99.1178 62.5091 99.4992 62.5651 99.8992 62.5651C100.326 62.5651 100.726 62.4957 101.099 62.3571C101.478 62.2184 101.782 62.0264 102.011 61.7811C102.246 61.5357 102.363 61.2477 102.363 60.9171C102.363 60.5757 102.241 60.2957 101.995 60.0771C101.755 59.8584 101.446 59.6851 101.067 59.5571C100.694 59.4291 100.305 59.3331 99.8992 59.2691C99.1152 59.1411 98.4112 58.9544 97.7872 58.7091C97.1685 58.4637 96.6778 58.1197 96.3152 57.6771C95.9578 57.2344 95.7792 56.6584 95.7792 55.9491C95.7792 55.2824 95.9685 54.7011 96.3472 54.2051C96.7312 53.7091 97.2352 53.3251 97.8592 53.0531C98.4885 52.7757 99.1685 52.6371 99.8992 52.6371C100.502 52.6371 101.083 52.7331 101.643 52.9251C102.209 53.1117 102.705 53.3864 103.131 53.7491C103.563 54.1064 103.873 54.5411 104.059 55.0531L102.483 55.6211C102.393 55.3597 102.219 55.1331 101.963 54.9411C101.707 54.7437 101.398 54.5891 101.035 54.4771C100.678 54.3651 100.299 54.3091 99.8992 54.3091C99.4725 54.3037 99.0725 54.3731 98.6992 54.5171C98.3312 54.6557 98.0298 54.8477 97.7952 55.0931C97.5605 55.3384 97.4432 55.6237 97.4432 55.9491C97.4432 56.3491 97.5525 56.6531 97.7712 56.8611C97.9898 57.0691 98.2832 57.2237 98.6512 57.3251C99.0245 57.4211 99.4405 57.5091 99.8992 57.5891C100.635 57.7064 101.315 57.9011 101.939 58.1731C102.569 58.4451 103.073 58.8077 103.451 59.2611C103.835 59.7091 104.027 60.2611 104.027 60.9171C104.027 61.5784 103.835 62.1597 103.451 62.6611C103.073 63.1571 102.569 63.5437 101.939 63.8211C101.315 64.0931 100.635 64.2291 99.8992 64.2291Z" fill="black"/>
<path d="M13.5885 102H11.9245V90H13.5885V91.176C13.8552 90.7653 14.1965 90.432 14.6125 90.176C15.0285 89.92 15.5192 89.792 16.0845 89.792C16.6658 89.792 17.2098 89.9013 17.7165 90.12C18.2285 90.3387 18.6765 90.6427 19.0605 91.032C19.4445 91.416 19.7458 91.8613 19.9645 92.368C20.1832 92.8747 20.2925 93.4187 20.2925 94C20.2925 94.5813 20.1832 95.128 19.9645 95.64C19.7458 96.152 19.4445 96.6027 19.0605 96.992C18.6765 97.376 18.2285 97.6773 17.7165 97.896C17.2098 98.1147 16.6658 98.224 16.0845 98.224C15.5192 98.224 15.0285 98.096 14.6125 97.84C14.1965 97.5787 13.8552 97.2453 13.5885 96.84V102ZM16.0685 91.4C15.6045 91.4 15.1965 91.5173 14.8445 91.752C14.4925 91.9867 14.2178 92.3013 14.0205 92.696C13.8232 93.0853 13.7245 93.52 13.7245 94C13.7245 94.48 13.8232 94.9173 14.0205 95.312C14.2178 95.7067 14.4925 96.0213 14.8445 96.256C15.1965 96.4907 15.6045 96.608 16.0685 96.608C16.5272 96.608 16.9485 96.4933 17.3325 96.264C17.7165 96.0293 18.0232 95.7147 18.2525 95.32C18.4818 94.9253 18.5965 94.4853 18.5965 94C18.5965 93.5253 18.4818 93.0907 18.2525 92.696C18.0285 92.3013 17.7245 91.9867 17.3405 91.752C16.9565 91.5173 16.5325 91.4 16.0685 91.4ZM25.257 98.208C24.521 98.208 23.849 98.0187 23.241 97.64C22.6383 97.2613 22.1557 96.7547 21.793 96.12C21.4357 95.48 21.257 94.7733 21.257 94C21.257 93.4133 21.361 92.8667 21.569 92.36C21.777 91.848 22.0623 91.4 22.425 91.016C22.793 90.6267 23.2197 90.3227 23.705 90.104C24.1903 89.8853 24.7077 89.776 25.257 89.776C25.8703 89.776 26.433 89.904 26.945 90.16C27.457 90.4107 27.8943 90.76 28.257 91.208C28.6197 91.6507 28.8863 92.1627 29.057 92.744C29.2277 93.32 29.2783 93.9333 29.209 94.584H23.041C23.1103 94.952 23.2437 95.2853 23.441 95.584C23.6437 95.8773 23.8997 96.1093 24.209 96.28C24.5237 96.4507 24.873 96.5387 25.257 96.544C25.6623 96.544 26.0303 96.4427 26.361 96.24C26.697 96.0373 26.9717 95.7573 27.185 95.4L28.873 95.792C28.553 96.5013 28.0703 97.0827 27.425 97.536C26.7797 97.984 26.057 98.208 25.257 98.208ZM22.985 93.312H27.529C27.4757 92.928 27.3397 92.5813 27.121 92.272C26.9077 91.9573 26.6383 91.7093 26.313 91.528C25.993 91.3413 25.641 91.248 25.257 91.248C24.8783 91.248 24.5263 91.3387 24.201 91.52C23.881 91.7013 23.6143 91.9493 23.401 92.264C23.193 92.5733 23.0543 92.9227 22.985 93.312ZM35.7579 95.728L37.2459 96.536C36.8832 97.0427 36.4219 97.448 35.8619 97.752C35.3072 98.056 34.7045 98.208 34.0539 98.208C33.3179 98.208 32.6459 98.0187 32.0379 97.64C31.4352 97.2613 30.9525 96.7547 30.5899 96.12C30.2325 95.48 30.0539 94.7733 30.0539 94C30.0539 93.4133 30.1579 92.8667 30.3659 92.36C30.5739 91.848 30.8592 91.4 31.2219 91.016C31.5899 90.6267 32.0165 90.3227 32.5019 90.104C32.9872 89.8853 33.5045 89.776 34.0539 89.776C34.7045 89.776 35.3072 89.928 35.8619 90.232C36.4219 90.536 36.8832 90.944 37.2459 91.456L35.7579 92.264C35.5339 91.9973 35.2725 91.7947 34.9739 91.656C34.6752 91.512 34.3685 91.44 34.0539 91.44C33.6165 91.44 33.2192 91.56 32.8619 91.8C32.5099 92.0347 32.2299 92.3467 32.0219 92.736C31.8192 93.12 31.7179 93.5413 31.7179 94C31.7179 94.4533 31.8219 94.8747 32.0299 95.264C32.2379 95.648 32.5179 95.9573 32.8699 96.192C33.2272 96.4267 33.6219 96.544 34.0539 96.544C34.3845 96.544 34.6992 96.4693 34.9979 96.32C35.2965 96.1707 35.5499 95.9733 35.7579 95.728ZM45.9495 93.816V98H44.2855V93.848C44.2855 93.3947 44.1895 92.9813 43.9975 92.608C43.8108 92.2347 43.5602 91.9387 43.2455 91.72C42.9308 91.5013 42.5815 91.392 42.1975 91.392C41.7815 91.392 41.4268 91.5013 41.1335 91.72C40.8402 91.9387 40.6135 92.2347 40.4535 92.608C40.2988 92.9813 40.2215 93.3947 40.2215 93.848V98H38.5495V86H40.2135V90.936C40.4375 90.504 40.7308 90.2053 41.0935 90.04C41.4615 89.8693 41.8828 89.784 42.3575 89.784C43.0775 89.784 43.7042 89.968 44.2375 90.336C44.7708 90.704 45.1868 91.1947 45.4855 91.808C45.7842 92.416 45.9388 93.0853 45.9495 93.816ZM50.8039 98.208C50.0679 98.208 49.3959 98.0187 48.7879 97.64C48.1852 97.2613 47.7025 96.7547 47.3399 96.12C46.9825 95.48 46.8039 94.7733 46.8039 94C46.8039 93.4133 46.9079 92.8667 47.1159 92.36C47.3239 91.848 47.6092 91.4 47.9719 91.016C48.3399 90.6267 48.7665 90.3227 49.2519 90.104C49.7372 89.8853 50.2545 89.776 50.8039 89.776C51.5399 89.776 52.2092 89.9653 52.8119 90.344C53.4199 90.7227 53.9025 91.232 54.2599 91.872C54.6225 92.512 54.8039 93.2213 54.8039 94C54.8039 94.5813 54.6999 95.1253 54.4919 95.632C54.2839 96.1387 53.9959 96.5867 53.6279 96.976C53.2652 97.36 52.8412 97.6613 52.3559 97.88C51.8759 98.0987 51.3585 98.208 50.8039 98.208ZM50.8039 96.544C51.2465 96.544 51.6439 96.4267 51.9959 96.192C52.3479 95.9573 52.6252 95.648 52.8279 95.264C53.0359 94.8747 53.1399 94.4533 53.1399 94C53.1399 93.536 53.0332 93.1093 52.8199 92.72C52.6119 92.3307 52.3319 92.0213 51.9799 91.792C51.6279 91.5573 51.2359 91.44 50.8039 91.44C50.3665 91.44 49.9692 91.5573 49.6119 91.792C49.2599 92.0267 48.9799 92.3387 48.7719 92.728C48.5692 93.1173 48.4679 93.5413 48.4679 94C48.4679 94.4747 48.5745 94.904 48.7879 95.288C49.0012 95.672 49.2839 95.9787 49.6359 96.208C49.9932 96.432 50.3825 96.544 50.8039 96.544Z" fill="black"/>
<path d="M15.3088 132V120H16.9648V132H15.3088ZM25.2904 124H26.9544V132H25.2824L25.2184 130.84C24.9838 131.251 24.6664 131.581 24.2664 131.832C23.8718 132.083 23.4024 132.208 22.8584 132.208C22.2664 132.208 21.7118 132.099 21.1944 131.88C20.6824 131.656 20.2291 131.347 19.8344 130.952C19.4451 130.557 19.1384 130.104 18.9144 129.592C18.6958 129.075 18.5864 128.52 18.5864 127.928C18.5864 127.357 18.6931 126.821 18.9064 126.32C19.1198 125.813 19.4158 125.371 19.7944 124.992C20.1731 124.613 20.6104 124.317 21.1064 124.104C21.6078 123.885 22.1438 123.776 22.7144 123.776C23.2958 123.776 23.8078 123.909 24.2504 124.176C24.6984 124.437 25.0664 124.773 25.3544 125.184L25.2904 124ZM22.8984 130.6C23.3784 130.6 23.7918 130.48 24.1384 130.24C24.4904 130 24.7544 129.677 24.9304 129.272C25.1118 128.867 25.1891 128.419 25.1624 127.928C25.1304 127.459 25.0051 127.032 24.7864 126.648C24.5731 126.264 24.2878 125.96 23.9304 125.736C23.5731 125.507 23.1678 125.392 22.7144 125.392C22.2398 125.392 21.8104 125.512 21.4264 125.752C21.0478 125.992 20.7544 126.315 20.5464 126.72C20.3384 127.125 20.2478 127.576 20.2744 128.072C20.3064 128.536 20.4451 128.96 20.6904 129.344C20.9411 129.728 21.2584 130.035 21.6424 130.264C22.0318 130.488 22.4504 130.6 22.8984 130.6ZM33.5971 125.672C33.4584 125.587 33.3064 125.52 33.1411 125.472C32.9811 125.419 32.8051 125.392 32.6131 125.392C32.1971 125.392 31.8344 125.501 31.5251 125.72C31.2157 125.939 30.9731 126.235 30.7971 126.608C30.6264 126.981 30.5411 127.395 30.5411 127.848V132H28.8691V124H30.5331V125.08C30.8104 124.68 31.1464 124.365 31.5411 124.136C31.9411 123.901 32.3864 123.784 32.8771 123.784C33.0584 123.784 33.2291 123.792 33.3891 123.808C33.5544 123.824 33.7117 123.856 33.8611 123.904L33.5971 125.672ZM40.6133 124H42.2773V132.208C42.2773 132.757 42.16 133.264 41.9253 133.728C41.696 134.192 41.384 134.592 40.9893 134.928C40.5947 135.269 40.1413 135.533 39.6293 135.72C39.1227 135.907 38.592 136 38.0373 136C37.4773 136 36.9387 135.88 36.4213 135.64C35.904 135.405 35.448 135.085 35.0533 134.68C34.664 134.275 34.3733 133.816 34.1813 133.304L35.7093 132.616C35.816 132.947 35.9867 133.24 36.2213 133.496C36.4613 133.752 36.7387 133.955 37.0533 134.104C37.3733 134.253 37.7013 134.328 38.0373 134.328C38.368 134.328 38.6853 134.275 38.9893 134.168C39.2987 134.067 39.5733 133.923 39.8133 133.736C40.0587 133.549 40.2533 133.325 40.3973 133.064C40.5413 132.803 40.6133 132.517 40.6133 132.208V130.856C40.352 131.261 40.016 131.589 39.6053 131.84C39.1947 132.085 38.7173 132.208 38.1733 132.208C37.608 132.208 37.0747 132.099 36.5733 131.88C36.072 131.661 35.632 131.36 35.2533 130.976C34.8747 130.587 34.5787 130.139 34.3653 129.632C34.152 129.125 34.0453 128.581 34.0453 128C34.0453 127.419 34.152 126.875 34.3653 126.368C34.5787 125.856 34.8747 125.408 35.2533 125.024C35.632 124.635 36.072 124.331 36.5733 124.112C37.0747 123.893 37.608 123.784 38.1733 123.784C38.7173 123.784 39.1947 123.909 39.6053 124.16C40.016 124.405 40.352 124.733 40.6133 125.144V124ZM38.1893 130.6C38.6533 130.6 39.0587 130.483 39.4053 130.248C39.752 130.008 40.0213 129.691 40.2133 129.296C40.4053 128.901 40.5013 128.469 40.5013 128C40.5013 127.52 40.4027 127.085 40.2053 126.696C40.0133 126.301 39.744 125.987 39.3973 125.752C39.0507 125.512 38.648 125.392 38.1893 125.392C37.7413 125.392 37.3307 125.509 36.9573 125.744C36.5893 125.979 36.296 126.293 36.0773 126.688C35.8587 127.083 35.7493 127.52 35.7493 128C35.7493 128.48 35.8587 128.917 36.0773 129.312C36.3013 129.707 36.5973 130.021 36.9653 130.256C37.3387 130.485 37.7467 130.6 38.1893 130.6ZM47.4672 132.208C46.7312 132.208 46.0592 132.019 45.4512 131.64C44.8485 131.261 44.3659 130.755 44.0032 130.12C43.6459 129.48 43.4672 128.773 43.4672 128C43.4672 127.413 43.5712 126.867 43.7792 126.36C43.9872 125.848 44.2725 125.4 44.6352 125.016C45.0032 124.627 45.4299 124.323 45.9152 124.104C46.4005 123.885 46.9179 123.776 47.4672 123.776C48.2032 123.776 48.8725 123.965 49.4752 124.344C50.0832 124.723 50.5659 125.232 50.9232 125.872C51.2859 126.512 51.4672 127.221 51.4672 128C51.4672 128.581 51.3632 129.125 51.1552 129.632C50.9472 130.139 50.6592 130.587 50.2912 130.976C49.9285 131.36 49.5045 131.661 49.0192 131.88C48.5392 132.099 48.0219 132.208 47.4672 132.208ZM47.4672 130.544C47.9099 130.544 48.3072 130.427 48.6592 130.192C49.0112 129.957 49.2885 129.648 49.4912 129.264C49.6992 128.875 49.8032 128.453 49.8032 128C49.8032 127.536 49.6965 127.109 49.4832 126.72C49.2752 126.331 48.9952 126.021 48.6432 125.792C48.2912 125.557 47.8992 125.44 47.4672 125.44C47.0299 125.44 46.6325 125.557 46.2752 125.792C45.9232 126.027 45.6432 126.339 45.4352 126.728C45.2325 127.117 45.1312 127.541 45.1312 128C45.1312 128.475 45.2379 128.904 45.4512 129.288C45.6645 129.672 45.9472 129.979 46.2992 130.208C46.6565 130.432 47.0459 130.544 47.4672 130.544Z" fill="black"/>
<path d="M6.86788 165V157H8.53188V157.968C8.78788 157.653 9.05721 157.397 9.33988 157.2C9.62788 156.997 9.96921 156.896 10.3639 156.896C10.9505 156.896 11.4705 157.029 11.9239 157.296C12.3825 157.557 12.7665 157.923 13.0759 158.392C13.3852 157.917 13.7692 157.549 14.2279 157.288C14.6919 157.027 15.2092 156.896 15.7799 156.896C16.4679 156.896 17.0732 157.069 17.5959 157.416C18.1185 157.763 18.5292 158.224 18.8279 158.8C19.1265 159.371 19.2759 160 19.2759 160.688V165H17.6119V160.688C17.6119 160.293 17.5345 159.936 17.3799 159.616C17.2305 159.296 17.0199 159.04 16.7479 158.848C16.4759 158.656 16.1532 158.56 15.7799 158.56C15.4172 158.56 15.0919 158.656 14.8039 158.848C14.5212 159.04 14.2999 159.296 14.1399 159.616C13.9852 159.936 13.9079 160.293 13.9079 160.688V165H12.2439V160.688C12.2439 160.293 12.1639 159.936 12.0039 159.616C11.8439 159.296 11.6225 159.04 11.3399 158.848C11.0572 158.656 10.7319 158.56 10.3639 158.56C10.0119 158.56 9.69721 158.661 9.41988 158.864C9.14788 159.067 8.93188 159.333 8.77188 159.664C8.61188 159.995 8.53188 160.357 8.53188 160.752V165H6.86788ZM26.9751 157H28.6391V165H26.9671L26.9031 163.84C26.6685 164.251 26.3511 164.581 25.9511 164.832C25.5565 165.083 25.0871 165.208 24.5431 165.208C23.9511 165.208 23.3965 165.099 22.8791 164.88C22.3671 164.656 21.9138 164.347 21.5191 163.952C21.1298 163.557 20.8231 163.104 20.5991 162.592C20.3805 162.075 20.2711 161.52 20.2711 160.928C20.2711 160.357 20.3778 159.821 20.5911 159.32C20.8045 158.813 21.1005 158.371 21.4791 157.992C21.8578 157.613 22.2951 157.317 22.7911 157.104C23.2925 156.885 23.8285 156.776 24.3991 156.776C24.9805 156.776 25.4925 156.909 25.9351 157.176C26.3831 157.437 26.7511 157.773 27.0391 158.184L26.9751 157ZM24.5831 163.6C25.0631 163.6 25.4765 163.48 25.8231 163.24C26.1751 163 26.4391 162.677 26.6151 162.272C26.7965 161.867 26.8738 161.419 26.8471 160.928C26.8151 160.459 26.6898 160.032 26.4711 159.648C26.2578 159.264 25.9725 158.96 25.6151 158.736C25.2578 158.507 24.8525 158.392 24.3991 158.392C23.9245 158.392 23.4951 158.512 23.1111 158.752C22.7325 158.992 22.4391 159.315 22.2311 159.72C22.0231 160.125 21.9325 160.576 21.9591 161.072C21.9911 161.536 22.1298 161.96 22.3751 162.344C22.6258 162.728 22.9431 163.035 23.3271 163.264C23.7165 163.488 24.1351 163.6 24.5831 163.6ZM37.9778 160.808V165H36.3138V160.84C36.3138 160.387 36.2178 159.976 36.0258 159.608C35.8391 159.235 35.5804 158.939 35.2498 158.72C34.9244 158.496 34.5538 158.384 34.1378 158.384C33.7218 158.384 33.3564 158.496 33.0418 158.72C32.7324 158.939 32.4898 159.235 32.3138 159.608C32.1431 159.976 32.0578 160.387 32.0578 160.84V165H30.3938V157H32.0578V158.08C32.3351 157.675 32.6711 157.357 33.0658 157.128C33.4604 156.893 33.9058 156.776 34.4018 156.776C35.1218 156.776 35.7458 156.96 36.2738 157.328C36.8071 157.696 37.2231 158.184 37.5218 158.792C37.8204 159.4 37.9724 160.072 37.9778 160.808ZM45.5636 157H47.2276V165.208C47.2276 165.757 47.1103 166.264 46.8756 166.728C46.6463 167.192 46.3343 167.592 45.9396 167.928C45.545 168.269 45.0916 168.533 44.5796 168.72C44.073 168.907 43.5423 169 42.9876 169C42.4276 169 41.889 168.88 41.3716 168.64C40.8543 168.405 40.3983 168.085 40.0036 167.68C39.6143 167.275 39.3236 166.816 39.1316 166.304L40.6596 165.616C40.7663 165.947 40.937 166.24 41.1716 166.496C41.4116 166.752 41.689 166.955 42.0036 167.104C42.3236 167.253 42.6516 167.328 42.9876 167.328C43.3183 167.328 43.6356 167.275 43.9396 167.168C44.249 167.067 44.5236 166.923 44.7636 166.736C45.009 166.549 45.2036 166.325 45.3476 166.064C45.4916 165.803 45.5636 165.517 45.5636 165.208V163.856C45.3023 164.261 44.9663 164.589 44.5556 164.84C44.145 165.085 43.6676 165.208 43.1236 165.208C42.5583 165.208 42.025 165.099 41.5236 164.88C41.0223 164.661 40.5823 164.36 40.2036 163.976C39.825 163.587 39.529 163.139 39.3156 162.632C39.1023 162.125 38.9956 161.581 38.9956 161C38.9956 160.419 39.1023 159.875 39.3156 159.368C39.529 158.856 39.825 158.408 40.2036 158.024C40.5823 157.635 41.0223 157.331 41.5236 157.112C42.025 156.893 42.5583 156.784 43.1236 156.784C43.6676 156.784 44.145 156.909 44.5556 157.16C44.9663 157.405 45.3023 157.733 45.5636 158.144V157ZM43.1396 163.6C43.6036 163.6 44.009 163.483 44.3556 163.248C44.7023 163.008 44.9716 162.691 45.1636 162.296C45.3556 161.901 45.4516 161.469 45.4516 161C45.4516 160.52 45.353 160.085 45.1556 159.696C44.9636 159.301 44.6943 158.987 44.3476 158.752C44.001 158.512 43.5983 158.392 43.1396 158.392C42.6916 158.392 42.281 158.509 41.9076 158.744C41.5396 158.979 41.2463 159.293 41.0276 159.688C40.809 160.083 40.6996 160.52 40.6996 161C40.6996 161.48 40.809 161.917 41.0276 162.312C41.2516 162.707 41.5476 163.021 41.9156 163.256C42.289 163.485 42.697 163.6 43.1396 163.6ZM55.2095 157H56.8735V165H55.2015L55.1375 163.84C54.9028 164.251 54.5855 164.581 54.1855 164.832C53.7908 165.083 53.3215 165.208 52.7775 165.208C52.1855 165.208 51.6308 165.099 51.1135 164.88C50.6015 164.656 50.1482 164.347 49.7535 163.952C49.3642 163.557 49.0575 163.104 48.8335 162.592C48.6148 162.075 48.5055 161.52 48.5055 160.928C48.5055 160.357 48.6122 159.821 48.8255 159.32C49.0388 158.813 49.3348 158.371 49.7135 157.992C50.0922 157.613 50.5295 157.317 51.0255 157.104C51.5268 156.885 52.0628 156.776 52.6335 156.776C53.2148 156.776 53.7268 156.909 54.1695 157.176C54.6175 157.437 54.9855 157.773 55.2735 158.184L55.2095 157ZM52.8175 163.6C53.2975 163.6 53.7108 163.48 54.0575 163.24C54.4095 163 54.6735 162.677 54.8495 162.272C55.0308 161.867 55.1082 161.419 55.0815 160.928C55.0495 160.459 54.9242 160.032 54.7055 159.648C54.4922 159.264 54.2068 158.96 53.8495 158.736C53.4922 158.507 53.0868 158.392 52.6335 158.392C52.1588 158.392 51.7295 158.512 51.3455 158.752C50.9668 158.992 50.6735 159.315 50.4655 159.72C50.2575 160.125 50.1668 160.576 50.1935 161.072C50.2255 161.536 50.3642 161.96 50.6095 162.344C50.8602 162.728 51.1775 163.035 51.5615 163.264C51.9508 163.488 52.3695 163.6 52.8175 163.6Z" fill="black"/>
<path d="M168.316 64.0211L170.484 52.8211H171.828L174.7 60.3651L177.556 52.8211H178.9L181.076 64.0211H179.38L177.932 56.5251L175.252 63.5971H174.132L171.46 56.5251L170.012 64.0211H168.316Z" fill="black"/>
<path d="M245.331 64.0211V52.8211H246.995V62.3571H251.819V64.0211H245.331Z" fill="black"/>
<path d="M313.453 64.0211L317.557 58.3891L313.501 52.8211H315.557L318.581 56.9811L321.613 52.8211H323.669L319.621 58.3891L323.717 64.0211H321.653L318.581 59.8131L315.525 64.0211H313.453ZM325.324 64.0211V52.8211H326.988V62.3571H331.812V64.0211H325.324Z" fill="black"/>
<path d="M383.146 64.0211L387.25 58.3891L383.194 52.8211H385.25L388.274 56.9811L391.306 52.8211H393.362L389.314 58.3891L393.41 64.0211H391.346L388.274 59.8131L385.218 64.0211H383.146ZM394.365 64.0211L398.469 58.3891L394.413 52.8211H396.469L399.493 56.9811L402.525 52.8211H404.581L400.533 58.3891L404.629 64.0211H402.565L399.493 59.8131L396.437 64.0211H394.365ZM406.235 64.0211V52.8211H407.899V62.3571H412.723V64.0211H406.235Z" fill="black"/>
<path d="M445.81 64.0211L449.914 58.3891L445.858 52.8211H447.914L450.938 56.9811L453.97 52.8211H456.026L451.978 58.3891L456.074 64.0211H454.01L450.938 59.8131L447.882 64.0211H445.81ZM457.029 64.0211L461.133 58.3891L457.077 52.8211H459.133L462.157 56.9811L465.189 52.8211H467.245L463.197 58.3891L467.293 64.0211H465.229L462.157 59.8131L459.101 64.0211H457.029ZM468.248 64.0211L472.352 58.3891L468.296 52.8211H470.352L473.376 56.9811L476.408 52.8211H478.464L474.416 58.3891L478.512 64.0211H476.448L473.376 59.8131L470.32 64.0211H468.248ZM480.118 64.0211V52.8211H481.782V62.3571H486.606V64.0211H480.118Z" fill="black"/>
<rect width="497.996" height="26.1196" rx="2" fill="black"/>
<path d="M193.548 18.9348L195.851 7.03478H197.279L200.331 15.0503L203.365 7.03478H204.793L207.105 18.9348H205.303L203.765 10.9703L200.917 18.4843H199.727L196.888 10.9703L195.35 18.9348H193.548ZM209.153 18.9348V7.03478H216.54V8.80278H210.921V11.6758H215.443V13.4438H210.921V17.1668H216.54V18.9348H209.153ZM218.483 18.9348V7.03478H222.419C223.24 7.03478 224.011 7.19062 224.731 7.50228C225.45 7.80828 226.082 8.23612 226.626 8.78578C227.17 9.32978 227.595 9.96162 227.901 10.6813C228.213 11.3953 228.369 12.1631 228.369 12.9848C228.369 13.8065 228.213 14.5771 227.901 15.2968C227.595 16.0108 227.17 16.6426 226.626 17.1923C226.082 17.7363 225.45 18.1641 224.731 18.4758C224.011 18.7818 223.24 18.9348 222.419 18.9348H218.483ZM220.251 17.1668H222.419C222.997 17.1668 223.535 17.0591 224.034 16.8438C224.538 16.6285 224.983 16.3281 225.368 15.9428C225.759 15.5575 226.062 15.1126 226.278 14.6083C226.493 14.104 226.601 13.5628 226.601 12.9848C226.601 12.4068 226.493 11.8656 226.278 11.3613C226.062 10.857 225.759 10.4121 225.368 10.0268C224.983 9.64145 224.538 9.34112 224.034 9.12578C223.535 8.91045 222.997 8.80278 222.419 8.80278H220.251V17.1668ZM230.392 18.9348V7.03478H232.16V18.9348H230.392ZM234.62 18.9348V7.03478H238.555C239.377 7.03478 240.148 7.19062 240.867 7.50228C241.587 7.80828 242.219 8.23612 242.763 8.78578C243.307 9.32978 243.732 9.96162 244.038 10.6813C244.35 11.3953 244.505 12.1631 244.505 12.9848C244.505 13.8065 244.35 14.5771 244.038 15.2968C243.732 16.0108 243.307 16.6426 242.763 17.1923C242.219 17.7363 241.587 18.1641 240.867 18.4758C240.148 18.7818 239.377 18.9348 238.555 18.9348H234.62ZM236.388 17.1668H238.555C239.133 17.1668 239.672 17.0591 240.17 16.8438C240.675 16.6285 241.12 16.3281 241.505 15.9428C241.896 15.5575 242.199 15.1126 242.414 14.6083C242.63 14.104 242.737 13.5628 242.737 12.9848C242.737 12.4068 242.63 11.8656 242.414 11.3613C242.199 10.857 241.896 10.4121 241.505 10.0268C241.12 9.64145 240.675 9.34112 240.17 9.12578C239.672 8.91045 239.133 8.80278 238.555 8.80278H236.388V17.1668ZM249.198 7.03478H251.264L255.59 18.9348H253.72L252.896 16.6738H247.566L246.75 18.9348H244.872L249.198 7.03478ZM248.221 14.9058H252.241L250.227 9.38078L248.221 14.9058ZM260.576 19.1558C259.925 19.1558 259.298 19.0538 258.698 18.8498C258.097 18.6458 257.573 18.354 257.125 17.9743C256.678 17.589 256.357 17.1328 256.165 16.6058L257.822 15.9853C257.919 16.2573 258.103 16.501 258.375 16.7163C258.652 16.926 258.981 17.0903 259.361 17.2093C259.746 17.3283 260.151 17.3878 260.576 17.3878C261.03 17.3878 261.455 17.3141 261.851 17.1668C262.254 17.0195 262.577 16.8155 262.82 16.5548C263.07 16.2941 263.194 15.9881 263.194 15.6368C263.194 15.2741 263.064 14.9766 262.803 14.7443C262.548 14.512 262.22 14.3278 261.817 14.1918C261.421 14.0558 261.007 13.9538 260.576 13.8858C259.743 13.7498 258.995 13.5515 258.332 13.2908C257.675 13.0301 257.154 12.6646 256.768 12.1943C256.389 11.724 256.199 11.112 256.199 10.3583C256.199 9.64995 256.4 9.03228 256.802 8.50528C257.21 7.97828 257.746 7.57028 258.409 7.28128C259.077 6.98662 259.8 6.83928 260.576 6.83928C261.217 6.83928 261.834 6.94128 262.429 7.14528C263.03 7.34362 263.557 7.63545 264.01 8.02078C264.469 8.40045 264.798 8.86228 264.996 9.40628L263.322 10.0098C263.225 9.73212 263.041 9.49128 262.769 9.28728C262.497 9.07762 262.169 8.91328 261.783 8.79428C261.404 8.67528 261.001 8.61578 260.576 8.61578C260.123 8.61012 259.698 8.68378 259.301 8.83678C258.91 8.98412 258.59 9.18812 258.341 9.44878C258.091 9.70945 257.967 10.0126 257.967 10.3583C257.967 10.7833 258.083 11.1063 258.315 11.3273C258.548 11.5483 258.859 11.7126 259.25 11.8203C259.647 11.9223 260.089 12.0158 260.576 12.1008C261.358 12.2255 262.081 12.4323 262.744 12.7213C263.412 13.0103 263.948 13.3956 264.35 13.8773C264.758 14.3533 264.962 14.9398 264.962 15.6368C264.962 16.3395 264.758 16.9571 264.35 17.4898C263.948 18.0168 263.412 18.4276 262.744 18.7223C262.081 19.0113 261.358 19.1558 260.576 19.1558ZM273.409 19.8868C272.831 19.3258 272.361 18.7138 271.998 18.0508C271.635 17.3821 271.369 16.6653 271.199 15.9003C271.029 15.1353 270.944 14.3221 270.944 13.4608C270.944 13.0358 270.981 12.5711 271.055 12.0668C271.128 11.5625 271.236 11.0525 271.378 10.5368C271.519 10.0211 271.689 9.53095 271.888 9.06628C272.092 8.60162 272.321 8.19078 272.576 7.83378C272.831 7.47678 273.109 7.21045 273.409 7.03478H275.177C274.922 7.23878 274.676 7.51928 274.438 7.87628C274.2 8.22762 273.979 8.62995 273.775 9.08328C273.571 9.53662 273.389 10.0155 273.231 10.5198C273.072 11.0241 272.947 11.5285 272.857 12.0328C272.766 12.5315 272.718 13.0075 272.712 13.4608C272.723 14.3505 272.842 15.1948 273.069 15.9938C273.301 16.7871 273.602 17.5153 273.97 18.1783C274.344 18.8356 274.746 19.4051 275.177 19.8868H273.409ZM282.604 16.5208L284.185 17.3793C283.8 17.9176 283.309 18.3483 282.714 18.6713C282.125 18.9943 281.485 19.1558 280.793 19.1558C280.011 19.1558 279.297 18.9546 278.651 18.5523C278.011 18.15 277.498 17.6116 277.113 16.9373C276.733 16.2573 276.543 15.5065 276.543 14.6848C276.543 14.0615 276.654 13.4806 276.875 12.9423C277.096 12.3983 277.399 11.9223 277.784 11.5143C278.175 11.1006 278.629 10.7776 279.144 10.5453C279.66 10.313 280.21 10.1968 280.793 10.1968C281.485 10.1968 282.125 10.3583 282.714 10.6813C283.309 11.0043 283.8 11.4378 284.185 11.9818L282.604 12.8403C282.366 12.557 282.088 12.3416 281.771 12.1943C281.454 12.0413 281.128 11.9648 280.793 11.9648C280.329 11.9648 279.907 12.0923 279.527 12.3473C279.153 12.5966 278.855 12.9281 278.634 13.3418C278.419 13.7498 278.311 14.1975 278.311 14.6848C278.311 15.1665 278.422 15.6141 278.643 16.0278C278.864 16.4358 279.161 16.7645 279.535 17.0138C279.915 17.2631 280.334 17.3878 280.793 17.3878C281.145 17.3878 281.479 17.3085 281.796 17.1498C282.114 16.9911 282.383 16.7815 282.604 16.5208ZM285.439 18.9348V10.4348H287.207V11.4633C287.479 11.129 287.765 10.857 288.065 10.6473C288.371 10.432 288.734 10.3243 289.153 10.3243C289.777 10.3243 290.329 10.466 290.811 10.7493C291.298 11.027 291.706 11.4151 292.035 11.9138C292.364 11.4095 292.772 11.0185 293.259 10.7408C293.752 10.4631 294.302 10.3243 294.908 10.3243C295.639 10.3243 296.282 10.5085 296.837 10.8768C297.393 11.2451 297.829 11.7353 298.146 12.3473C298.464 12.9536 298.622 13.6223 298.622 14.3533V18.9348H296.854V14.3533C296.854 13.934 296.772 13.5543 296.608 13.2143C296.449 12.8743 296.225 12.6023 295.936 12.3983C295.647 12.1943 295.305 12.0923 294.908 12.0923C294.523 12.0923 294.177 12.1943 293.871 12.3983C293.571 12.6023 293.335 12.8743 293.165 13.2143C293.001 13.5543 292.919 13.934 292.919 14.3533V18.9348H291.151V14.3533C291.151 13.934 291.066 13.5543 290.896 13.2143C290.726 12.8743 290.491 12.6023 290.19 12.3983C289.89 12.1943 289.544 12.0923 289.153 12.0923C288.779 12.0923 288.445 12.2 288.15 12.4153C287.861 12.6306 287.632 12.914 287.462 13.2653C287.292 13.6166 287.207 14.002 287.207 14.4213V18.9348H285.439ZM300.209 19.8868C300.639 19.4051 301.039 18.8356 301.407 18.1783C301.781 17.5153 302.081 16.7871 302.308 15.9938C302.54 15.1948 302.662 14.3505 302.674 13.4608C302.668 13.0075 302.62 12.5315 302.529 12.0328C302.438 11.5285 302.314 11.0241 302.155 10.5198C301.996 10.0155 301.815 9.53662 301.611 9.08328C301.407 8.62995 301.186 8.22762 300.948 7.87628C300.71 7.51928 300.464 7.23878 300.209 7.03478H301.977C302.277 7.21045 302.552 7.47678 302.801 7.83378C303.056 8.19078 303.286 8.60162 303.49 9.06628C303.694 9.53095 303.866 10.0211 304.008 10.5368C304.15 11.0525 304.257 11.5625 304.331 12.0668C304.405 12.5711 304.442 13.0358 304.442 13.4608C304.442 14.3221 304.357 15.1353 304.187 15.9003C304.022 16.6653 303.759 17.3821 303.396 18.0508C303.033 18.7138 302.56 19.3258 301.977 19.8868H300.209Z" fill="white"/>
</svg>
